<?xml version="1.0" encoding="UTF-8"?>
<svg id="a" xmlns="http://www.w3.org/2000/svg" version="1.1" viewBox="0 0 290.3 291.6">
  <!-- Generator: Adobe Illustrator 29.7.1, SVG Export Plug-In . SVG Version: 2.1.1 Build 8)  -->
  <path d="M152.6,3.4C74.1-.6,6.8,59.7,2.7,138.2c-2,38,10.9,74.6,36.3,102.9,25.5,28.3,60.4,45,98.4,47.1,2.6.1,5.2.2,7.8.2,35.2,0,68.7-12.8,95.1-36.5,28.3-25.5,45-60.4,47.1-98.4C291.6,74.8,231.1,7.6,152.6,3.4h0ZM272.3,152.5c-1.8,34-16.7,65.2-42.1,88-25.3,22.8-58,34.3-91.9,32.5-34-1.8-65.2-16.7-88-42.1-22.8-25.3-34.3-58-32.5-91.9,3.6-67.9,60-120.6,127.2-120.6s4.6,0,6.8.2c70.2,3.7,124.2,63.9,120.5,134Z"/>
  <polygon points="176.9 98.6 135.6 95.1 95.5 56.3 92.2 115.5 38.3 143.6 73.4 172.4 62 201 101.4 207.9 116.9 195.2 82.9 189.3 91.5 167.7 65.6 146.4 106.8 124.9 108.8 90.2 128.9 109.8 168.9 113.2 186.2 135.7 232.7 136 220.3 160.2 170.9 171.5 119.6 212.6 99.6 228.9 95.8 251.1 177.7 185.5 230.6 173.4 257.3 121 193.7 120.6 176.9 98.6"/>
  <polygon points="162.1 122.2 147.4 121 139.8 120.4 151.6 136.5 174 138.4 162.1 122.2"/>
</svg>