<?xml version="1.0" encoding="UTF-8"?><svg id="a" xmlns="http://www.w3.org/2000/svg" viewBox="0 0 1127.5016 208.8"><path d="M109.95639.13968C52.43935-2.81163,3.2108,41.36344.15113,98.84501c-1.48157,27.84633,7.96932,54.60513,26.61104,75.34704,18.64368,20.73797,44.24797,32.97665,72.0943,34.45821,1.90121.10245,3.79257.14973,5.68196.14973,25.78554,0,50.33972-9.38981,69.66311-26.76274,20.73994-18.64171,32.97862-44.246,34.46018-72.09233C211.72139,52.45942,167.4419,3.20132,109.95639.13968ZM197.58151,109.35388c-1.32395,24.88714-12.26232,47.77259-30.79764,64.43232-18.5373,16.66367-42.46497,25.13538-67.33635,23.78385-24.88911-1.32395-47.77062-12.26232-64.43232-30.79764-16.6617-18.53533-25.1078-42.44921-23.78385-67.33635C13.87728,49.73665,55.15424,11.08592,104.35323,11.08592c1.66085,0,3.33549.04334,5.0121.13397,51.378,2.73853,90.95076,46.75993,88.21617,98.13399Z"/><polygon points="127.74896 69.89539 97.50099 67.32629 68.12384 38.88103 65.71039 82.23651 26.22037 102.82869 51.91331 123.88977 43.58148 144.83264 72.47717 149.88316 83.83592 140.6086 58.93696 136.25059 65.22376 120.4538 46.24909 104.9013 76.43992 89.15573 77.85253 63.74453 92.62286 78.044 121.92121 80.53429 134.5283 97.00882 168.60233 97.24918 159.56124 115.00038 123.36534 123.23961 85.78786 153.34277 71.13426 165.30759 68.37602 181.50926 128.3144 133.49236 167.09121 124.66995 186.64117 86.27929 140.03689 85.95224 127.74896 69.89539"/><polygon points="116.91748 87.15602 106.16751 86.24284 100.54589 85.83009 109.18778 97.63632 125.6096 99.03119 116.91748 87.15602"/><path d="M259.38003,49.55421h14.81267l19.16922,64.18626c1.45153,5.51856,2.90502,11.03712,4.35655,19.02544,1.74301-8.42358,3.34029-13.50688,4.93756-19.02544l19.89597-64.18626h15.39367l19.74825,64.18626c1.74301,5.6643,3.19651,11.18286,4.79378,19.02544,1.74104-8.85885,3.19454-14.23166,4.64607-18.8797l19.31496-64.332h14.52118l-31.65787,104.99446h-13.65066l-25.41256-83.06596-25.70405,83.06596h-13.94215l-31.22261-104.99446Z"/><path d="M401.75574,134.79845c0-13.06965,9.72937-21.20175,26.43079-22.5095l22.36376-1.74301v-2.03253c0-11.90764-7.11583-16.12042-16.70143-16.12042-11.47238,0-18.00721,5.0833-18.00721,13.65066h-11.90764c0-14.8107,12.19913-24.54204,30.49586-24.54204,17.57195,0,29.47959,9.29411,29.47959,28.46333v44.58375h-11.61616l-1.4535-11.47238c-3.6298,8.1321-13.35917,13.2154-24.83155,13.2154-15.24793,0-24.25252-8.56933-24.25252-21.49324ZM450.69604,123.90707v-3.77555l-18.15295,1.45153c-12.05339,1.16201-16.99094,5.80808-16.99094,12.78014,0,7.55109,5.51856,11.32664,14.37741,11.32664,12.92391,0,20.76649-8.42358,20.76649-21.78276Z"/><path d="M521.91934,95.44374h-6.09957c-12.92391,0-20.91223,7.84258-20.91223,21.49324v37.61169h-13.65066v-70.8688h12.78014l.87052,10.7476c2.90502-7.40732,10.02086-12.34487,19.75022-12.34487,2.46976,0,4.50229.29149,7.26157.87249v12.48865Z"/><path d="M527.47532,119.11526c0-22.21999,14.08592-37.61366,34.70863-37.61366,20.18548,0,33.40088,13.94215,33.40088,34.99815v5.0833l-54.89412.14574c1.01627,14.95644,8.85885,23.23428,22.36376,23.23428,10.60186,0,17.57195-4.35655,19.89597-12.48865h12.77817c-3.48406,15.24793-15.3917,23.81726-32.96365,23.81726-20.91223,0-35.28964-15.10415-35.28964-37.17643ZM540.98024,112.58043h40.95394c0-11.76387-7.69684-19.60645-19.75022-19.60645-11.90961,0-19.46071,7.11583-21.20372,19.60645Z"/><path d="M599.72868,83.5361h14.08789l11.7619,36.88494c1.59727,5.22904,3.0488,10.60186,4.35655,16.8452,1.16201-6.24334,3.0488-12.19716,4.64804-16.8452l11.90764-36.88494h13.94018l11.76387,36.88494c1.16201,3.48603,3.48406,11.76387,4.64607,16.8452,1.16201-5.66233,2.46976-10.59989,4.50229-16.8452l11.90764-36.88494h14.23166l-24.25055,71.01257h-12.92588l-12.3429-38.04892c-2.32402-7.11583-3.77555-12.63439-4.50229-16.55371-.72675,3.48406-2.03253,8.1321-4.64607,16.69946l-12.34487,37.90318h-13.50491l-23.23625-71.01257Z"/><path d="M780.76583,83.5361v71.01257h-12.19913l-1.45153-10.7476c-4.06703,7.40732-13.50688,12.49062-23.96103,12.49062-16.55568,0-25.84979-11.18286-25.84979-28.60907v-44.14652h13.65066v39.64422c0,15.24793,6.53483,21.05798,16.99094,21.05798,12.48865,0,19.31299-7.98832,19.31299-23.23625v-37.46595h13.50688Z"/><path d="M798.71987,154.54867V47.66546h13.65066v106.88321h-13.65066Z"/><path d="M833.67075,83.5361v-11.32861c0-17.4262,9.58559-24.54204,22.5095-24.54204,2.61354,0,5.6643.14574,8.42358.581v11.76387h-6.09957c-8.85885,0-11.18286,4.50033-11.18286,12.19716v11.32861h16.84717v11.47238h-16.84717v59.54019h-13.65066v-59.54019h-10.45415v-11.47238h10.45415Z"/><path d="M935.89608,117.08076v37.46791h-14.23166V49.55421h40.8082c20.62075,0,33.83614,13.50491,33.83614,33.6904,0,19.60448-13.36114,33.83614-33.83614,33.83614h-26.57654ZM935.89608,62.33238v41.97021h23.52577c14.08789,0,21.9285-8.27784,21.9285-21.20372,0-13.21343-7.98635-20.76649-21.34749-20.76649h-24.10677Z"/><path d="M1048.27619,95.44374h-6.09957c-12.92391,0-20.91223,7.84258-20.91223,21.49324v37.61169h-13.65066v-70.8688h12.78014l.87052,10.7476c2.90502-7.40732,10.02086-12.34487,19.75022-12.34487,2.46976,0,4.50229.29149,7.26157.87249v12.48865Z"/><path d="M1090.61666,81.64734c21.20175,0,36.88494,15.39367,36.88494,37.32217s-15.68319,37.32217-36.88494,37.32217c-21.34749,0-37.03068-15.39367-37.03068-37.32217s15.68319-37.32217,37.03068-37.32217ZM1090.61666,144.09255c13.65066,0,23.23428-10.31037,23.23428-25.12304s-9.58362-25.12304-23.23428-25.12304c-13.7964,0-23.23625,10.31037-23.23625,25.12304s9.43985,25.12304,23.23625,25.12304Z"/></svg>