<?xml version="1.0" encoding="UTF-8"?><svg id="a" xmlns="http://www.w3.org/2000/svg" viewBox="0 0 904.53218 444.66988"><path d="M459.74125,6.52567c-78.54039-4.03006-145.76272,56.29167-149.94075,134.78364-2.0231,38.02459,10.88223,74.56414,36.33778,102.88753,25.45824,28.31802,60.42127,45.03011,98.44586,47.05321,2.59613.1399,5.17881.20446,7.7588.20446,35.21054,0,68.73966-12.82193,95.12604-36.54493,28.32071-25.45554,45.0328-60.41858,47.0559-98.44317,4.17802-78.49735-56.28629-145.76003-134.78364-149.94075ZM579.39469,155.65933c-1.80788,33.98377-16.74438,65.23421-42.05465,87.98332-25.31296,22.75449-57.98656,34.32275-91.94881,32.47721-33.98646-1.80788-65.23152-16.74438-87.98332-42.05465-22.7518-25.31027-34.28508-57.96504-32.47721-91.94881,3.61306-67.86531,59.97737-120.64346,127.15935-120.64346,2.26792,0,4.55466.05919,6.8441.18294,70.15744,3.73951,124.19465,63.8514,120.46052,134.00345Z"/><polygon points="484.03728 101.77816 442.73322 98.27002 402.61828 59.42758 399.32267 118.63015 345.39845 146.74908 380.48255 175.50831 369.10531 204.10611 408.56281 211.00268 424.07336 198.33813 390.07344 192.3872 398.65817 170.81644 372.74796 149.57927 413.974 128.07845 415.90294 93.37907 436.07206 112.90521 476.0794 116.30574 493.29458 138.80196 539.82318 139.13017 527.47743 163.36971 478.05138 174.62051 426.73876 215.72683 406.72904 232.06497 402.96263 254.18859 484.80939 188.62079 537.75973 176.57366 564.4555 124.15063 500.81663 123.70404 484.03728 101.77816"/><polygon points="469.24673 125.34781 454.56748 124.10086 446.89107 123.53724 458.6917 139.65882 481.11596 141.56354 469.24673 125.34781"/><path d="M8.26047,329.17769h15.14848l19.60379,65.64138c1.48443,5.64367,2.97088,11.28734,4.45532,19.45676,1.78253-8.61455,3.41601-13.81309,5.04949-19.45676l20.34702-65.64138h15.74265l20.19595,65.64138c1.78253,5.79272,3.26898,11.43638,4.90246,19.45676,1.78051-9.05968,3.26696-14.5543,4.7514-19.30771l19.75284-65.79043h14.85038l-32.37556,107.37472h-13.96012l-25.98867-84.94909-26.28677,84.94909h-14.25822l-31.93043-107.37472Z"/><path d="M153.86389,416.35444c0-13.36595,9.94994-21.6824,27.02999-23.0198l22.87075-1.78253v-2.07861c0-12.17759-7.27715-16.48588-17.08005-16.48588-11.73247,0-18.41544,5.19854-18.41544,13.96012h-12.17759c0-15.14646,12.47569-25.09841,31.18721-25.09841,17.97031,0,30.1479,9.50481,30.1479,29.1086v45.59448h-11.8795l-1.48645-11.73247c-3.71209,8.31645-13.66203,13.51499-25.39449,13.51499-15.5936,0-24.80233-8.7636-24.80233-21.9805ZM203.91368,405.21616v-3.86114l-18.56449,1.48443c-12.32664,1.18835-17.37613,5.93975-17.37613,13.06987,0,7.72228,5.64367,11.58342,14.70335,11.58342,13.2169,0,21.23727-8.61455,21.23727-22.27658Z"/><path d="M276.75165,376.10756h-6.23784c-13.2169,0-21.38632,8.02037-21.38632,21.9805v38.46436h-13.96012v-72.47542h13.06987l.89026,10.99126c2.97088-7.57525,10.24803-12.62474,20.19797-12.62474,2.52575,0,4.60436.2981,7.4262.89227v12.77177Z"/><path d="M282.43359,400.31571c0-22.72372,14.40525-38.46637,35.49549-38.46637,20.6431,0,34.15809,14.25822,34.15809,35.79157v5.19854l-56.13859.14905c1.03931,15.29551,9.05968,23.76101,22.87075,23.76101,10.84221,0,17.97031-4.45532,20.34702-12.77177h13.06785c-3.56304,15.5936-15.74064,24.3572-33.71095,24.3572-21.38632,0-36.08967-15.44657-36.08967-38.01923ZM296.24466,393.63274h41.88238c0-12.03056-7.87133-20.05093-20.19797-20.05093-12.17961,0-19.90189,7.27715-21.68442,20.05093Z"/><path d="M356.32496,363.92996h14.40727l12.02855,37.72114c1.63348,5.34759,3.11792,10.84221,4.45532,17.22709,1.18835-6.38488,3.11792-12.47368,4.75341-17.22709l12.17759-37.72114h14.2562l12.03056,37.72114c1.18835,3.56506,3.56304,12.03056,4.7514,17.22709,1.18835-5.7907,2.52575-10.84019,4.60436-17.22709l12.17759-37.72114h14.5543l-24.80032,72.62245h-13.21891l-12.62272-38.9115c-2.37671-7.27715-3.86114-12.92082-4.60436-16.92899-.74322,3.56304-2.07861,8.31645-4.7514,17.07804l-12.62474,38.76245h-13.81108l-23.76303-72.62245Z"/><path d="M541.46628,363.92996v72.62245h-12.47569l-1.48443-10.99126c-4.15923,7.57525-13.81309,12.77378-24.50424,12.77378-16.93101,0-26.43581-11.43638-26.43581-29.25765v-45.14733h13.96012v40.54297c0,15.5936,6.68297,21.53537,17.37613,21.53537,12.77177,0,19.75083-8.16942,19.75083-23.76303v-38.31531h13.81309Z"/><path d="M559.82734,436.55241v-109.3063h13.96012v109.3063h-13.96012Z"/><path d="M595.57057,363.92996v-11.58543c0-17.82126,9.8029-25.09841,23.0198-25.09841,2.67279,0,5.79272.14905,8.61455.59418v12.03056h-6.23784c-9.05968,0-11.43638,4.60235-11.43638,12.47368v11.58543h17.2291v11.73247h-17.2291v60.88999h-13.96012v-60.88999h-10.69115v-11.73247h10.69115Z"/><path d="M700.11339,398.23509v38.31733h-14.5543v-107.37472h41.73334c21.08823,0,34.60322,13.81108,34.60322,34.45417,0,20.04892-13.66404,34.60322-34.60322,34.60322h-27.17904ZM700.11339,342.24555v42.92169h24.05911c14.40727,0,22.42563-8.4655,22.42563-21.68442,0-13.51298-8.16741-21.23727-21.83145-21.23727h-24.65328Z"/><path d="M815.0412,376.10756h-6.23784c-13.2169,0-21.38632,8.02037-21.38632,21.9805v38.46436h-13.96012v-72.47542h13.06987l.89026,10.99126c2.97088-7.57525,10.24803-12.62474,20.19797-12.62474,2.52575,0,4.60436.2981,7.4262.89227v12.77177Z"/><path d="M858.34155,361.99838c21.6824,0,37.72114,15.74265,37.72114,38.16828s-16.03873,38.16828-37.72114,38.16828c-21.83145,0-37.87018-15.74265-37.87018-38.16828s16.03873-38.16828,37.87018-38.16828ZM858.34155,425.85925c13.96012,0,23.76101-10.54411,23.76101-25.69259s-9.80089-25.69259-23.76101-25.69259c-14.10917,0-23.76303,10.54411-23.76303,25.69259s9.65386,25.69259,23.76303,25.69259Z"/></svg>