<?xml version="1.0" encoding="UTF-8"?><svg id="a" xmlns="http://www.w3.org/2000/svg" viewBox="0 0 774.99667 221.90238"><path d="M99.30473,128.76442l7.84423-7.84842-31.5604-30.31948-41.02776,41.04968c.43761,1.76669.92103,3.53585,1.4665,5.306.69766,2.19766,1.53053,4.36084,2.42126,6.49939l37.29761-37.31484,23.55856,22.62768Z"/><path d="M189.90166,142.87138c.45682-1.0678.94393-2.11442,1.36258-3.20832,1.07199-2.80149,1.92751-5.61776,2.68452-8.43748l-40.68668-40.70786-87.34797,87.39008c2.27129,1.62977,4.59552,3.18468,7.02541,4.56277l.72204.41766c.67205.33492,1.34509.62452,2.01764.94368l77.58288-77.61637,36.63959,36.65584Z"/><path d="M114.25478,17.64684c51.44816,0,93.30435,41.85594,93.30435,93.30435s-41.85619,93.30435-93.30435,93.30435S20.95043,162.39959,20.95043,110.95119,62.80662,17.64684,114.25478,17.64684M114.25478,6.55119C56.59635,6.55119,9.85478,53.293,9.85478,110.95119s46.74157,104.4,104.4,104.4,104.4-46.74132,104.4-104.4S171.91346,6.55119,114.25478,6.55119h0Z"/><rect x="582.42035" y="33.96457" width="8.89636" height="156.56732"/><path d="M341.98425,68.48764c-12.59131-13.12006-50.54303-7.44781-67.79663-8.60938v104.8894h18.36572v-39.17194h22.52747l17.79352,39.17194h20.08691l-19.94446-43.04639c21.59113-7.20123,25.05865-39.71014,8.96747-53.23364ZM332.72888,92.59214c.66479,21.47192-26.15503,16.25165-40.17554,16.78876v-33.14539c13.55927.61108,41.09375-4.75604,40.17554,16.35663Z"/><polygon points="385.84857 59.87827 367.48285 59.87827 367.48285 164.76767 370.638 164.76767 385.84857 164.76767 429.61194 164.76767 429.61194 147.83591 385.84857 147.83591 385.84857 59.87827"/><path d="M466.78943,144.32114c-10.53906-6.79156-14.86597-18.9306-14.85089-31.92645.00616-13.3606,4.1106-25.25848,14.85059-32.14087,15.18506-9.461,40.0119-3.82404,44.69788,14.92194h19.36993c-5.58289-44.34558-73.79816-49.49164-91.76001-11.33588-17.40765,34.26941.38019,84.5083,43.97974,82.65015,22.75867.49506,44.18134-13.93823,48.06757-36.73376h-19.08502c-4.83667,18.34167-30.26276,24.1535-45.26978,14.56488Z"/><path d="M684.13751,58.5311l-39.79236,108.33411h11.04498l10.59351-28.74731h49.9303l10.58942,28.74731h11.34875l-40.24799-108.33411h-13.46661ZM669.31238,128.58536l20.12396-54.7735c.29962-.70392.57874-1.48584.8291-2.3457.25037-.85577.43097-1.53503.52948-2.04193.1026.5069.30371,1.16156.60742,1.96808.30371.80853.55408,1.61304.75525,2.41956l20.27582,54.7735h-43.12103Z"/><rect x="750.77283" y="58.5311" width="10.89313" height="108.33411"/></svg>