<?xml version="1.0" encoding="UTF-8"?>
<svg id="a" xmlns="http://www.w3.org/2000/svg" version="1.1" viewBox="0 0 502.2 444.7">
  <!-- Generator: Adobe Illustrator 29.7.1, SVG Export Plug-In . SVG Version: 2.1.1 Build 8)  -->
  <path d="M229.8,169.4l10.5-10.5-42.1-40.5-54.7,54.8c.6,2.4,1.2,4.7,2,7.1.9,2.9,2,5.8,3.2,8.7l49.8-49.8,31.4,30.2h0Z"/>
  <path d="M350.7,188.2c.6-1.4,1.3-2.8,1.8-4.3,1.4-3.7,2.6-7.5,3.6-11.3l-54.3-54.3-116.5,116.6c3,2.2,6.1,4.2,9.4,6.1l1,.6c.9.4,1.8.8,2.7,1.3l103.5-103.6,48.9,48.9h0Z"/>
  <path d="M249.8,21.1c68.6,0,124.5,55.8,124.5,124.5s-55.8,124.5-124.5,124.5-124.5-55.8-124.5-124.5S181.1,21.1,249.8,21.1M249.8,6.3c-76.9,0-139.3,62.4-139.3,139.3s62.4,139.3,139.3,139.3,139.3-62.4,139.3-139.3S326.7,6.3,249.8,6.3h0Z"/>
  <rect x="314.2" y="302.4" width="8.9" height="135.9"/>
  <path d="M74,329.3c-12.6-13.1-50.5-7.4-67.7-8.6v104.8h18.4v-39.1h22.5l17.8,39.1h20.1l-19.9-43c21.6-7.2,25-39.7,9-53.2h0ZM64.7,353.3c.7,21.5-26.1,16.2-40.1,16.8v-33.1c13.5.6,41.1-4.8,40.1,16.3Z"/>
  <polygon points="117.8 320.7 99.5 320.7 99.5 425.5 102.6 425.5 117.8 425.5 161.5 425.5 161.5 408.5 117.8 408.5 117.8 320.7"/>
  <path d="M198.7,405c-10.5-6.8-14.9-18.9-14.8-31.9,0-13.3,4.1-25.2,14.8-32.1,15.2-9.5,40-3.8,44.7,14.9h19.4c-5.6-44.3-73.7-49.4-91.7-11.3-17.4,34.2.4,84.4,43.9,82.6,22.7.5,44.1-13.9,48-36.7h-19.1c-4.8,18.3-30.2,24.1-45.2,14.6h0Z"/>
  <path d="M415.8,318.9l-39.8,108.2h11l10.6-28.7h49.9l10.6,28.7h11.3l-40.2-108.2h-13.5ZM401,388.9l20.1-54.7c.5-1.2,1.1-3.2,1.4-4.4.2,1.2,1.1,3,1.4,4.4l20.3,54.7h-43.1Z"/>
  <rect x="482.4" y="318.9" width="10.9" height="108.2"/>
</svg>