<?xml version="1.0" encoding="UTF-8"?>
<svg id="a" xmlns="http://www.w3.org/2000/svg" version="1.1" viewBox="0 0 289.1 288.1">
  <!-- Generator: Adobe Illustrator 29.7.1, SVG Export Plug-In . SVG Version: 2.1.1 Build 8)  -->
  <path d="M124.7,169.4l10.5-10.5-42.1-40.5-54.7,54.8c.6,2.4,1.2,4.7,2,7.1.9,2.9,2,5.8,3.2,8.7l49.8-49.8,31.4,30.2h0Z"/>
  <path d="M245.5,188.2c.6-1.4,1.3-2.8,1.8-4.3,1.4-3.7,2.6-7.5,3.6-11.3l-54.3-54.3-116.5,116.6c3,2.2,6.1,4.2,9.4,6.1l1,.6c.9.4,1.8.8,2.7,1.3l103.5-103.6,48.9,48.9h0Z"/>
  <path d="M144.6,21.1c68.6,0,124.5,55.8,124.5,124.5s-55.8,124.5-124.5,124.5S20.1,214.3,20.1,145.6,76,21.1,144.6,21.1M144.6,6.3C67.7,6.3,5.3,68.7,5.3,145.6s62.4,139.3,139.3,139.3,139.3-62.4,139.3-139.3S221.5,6.3,144.6,6.3h0Z"/>
</svg>