<?xml version="1.0" encoding="UTF-8"?><svg id="Layer_1" xmlns="http://www.w3.org/2000/svg" viewBox="0 0 792 348"><defs><style>.cls-1{fill:#fff;}</style></defs><path class="cls-1" d="M781.892878,329.595665l-47.873996-54.247343c23.566456-27.71653,37.647093-63.733207,37.647093-102.862434,0-88.188973-71.736903-159.925887-159.925876-159.925887s-159.925876,71.736914-159.925876,159.925887,71.736903,159.925887,159.925876,159.925887c30.23621,0,58.54562-8.448351,82.704934-23.121824l17.786011,20.305692,69.661832.000023ZM643.013755,173.078756h-69.661878l85.965721,96.637323c-14.377044,7.114409-30.532662,10.968031-47.577589,10.968031-59.583156,0-108.198235-48.615102-108.198235-108.198235s48.615079-108.198235,108.198235-108.198235,108.198235,48.615102,108.198235,108.198235c0,23.714682-7.70729,45.650767-20.750347,63.585004l-56.174143-62.992123Z"/><path class="cls-1" d="M169.313002,64.287652c35.868452,0,69.513674,17.786011,89.67114,47.577578l5.335812,8.003707,44.761457-25.937933-5.92867-9.04122C273.509389,39.683672,223.560345,12.560005,169.313002,12.560005,81.272249,12.560005,9.387122,84.296914,9.387122,172.634102s71.736913,159.925898,159.925891,159.925898c54.099129,0,104.04815-26.975446,133.839728-72.329784l5.92867-9.041231-44.761457-25.937933-5.335812,8.003696c-20.305692,29.791578-53.654463,47.577567-89.67114,47.577567-59.583133,0-108.198235-48.615102-108.198235-108.198235s48.615102-108.346427,108.198235-108.346427Z"/><rect class="cls-1" x="354.287539" y="17.154694" width="51.875867" height="311.996298"/></svg>