<?xml version="1.0" encoding="UTF-8"?><svg id="a" xmlns="http://www.w3.org/2000/svg" viewBox="0 0 612.24682 444.66988"><path d="M68.99391,305.3368c0-15.7825-10.68483-25.20486-28.5813-25.20486H8.90511v82.93637h12.59276v-32.18911h19.54541l15.19395,32.18911h14.00719l-16.70117-34.65256c9.97334-3.55374,15.45066-11.71592,15.45066-23.07894ZM21.49786,291.59884h18.91475c9.80373,0,15.42618,5.04814,15.42618,13.8501,0,8.9451-5.58148,14.07521-15.31348,14.07521h-19.02745v-27.92531Z"/><path d="M103.59097,305.00553c-17.08253,0-29.48119,12.49343-29.48119,29.70659s12.39866,29.70716,29.48119,29.70716c17.01764,0,29.36906-12.49372,29.36906-29.70716s-12.35142-29.70659-29.36906-29.70659ZM120.8175,334.71212c0,11.00386-7.08357,18.68935-17.22653,18.68935s-17.22653-7.68549-17.22653-18.68935,7.08357-18.68963,17.22653-18.68963,17.22653,7.68549,17.22653,18.68963Z"/><path d="M181.02299,343.49671c-1.81742,6.20189-7.17464,9.90476-14.33106,9.90476-9.50832,0-15.65215-7.336-15.65215-18.68935,0-11.42165,6.32085-18.80176,16.10238-18.80176,6.98453,0,12.12887,3.77771,13.76073,10.1054l.1514.58627h12.09813l-.14059-.90188c-2.00127-12.83466-12.04349-20.80759-26.20835-20.80759-16.36364,0-27.7924,12.30845-27.7924,29.93227,0,17.70123,11.12425,29.59446,27.68084,29.59446,13.60364,0,24.22529-8.26435,26.43033-20.56483l.1645-.91953h-12.0987l-.16507.56179Z"/><polygon points="237.31188 306.46864 214.0064 331.16948 214.0064 278.66883 201.86388 278.66883 201.86388 363.0683 214.0064 363.0683 214.0064 346.95568 222.44123 338.11417 238.23055 363.0683 252.2349 363.0683 230.87036 329.29628 252.7614 306.46864 237.31188 306.46864"/><path d="M282.61427,349.3107l-15.44155-42.84207h-12.82612l22.47332,58.75206-1.81173,5.01029c-2.49419,6.72213-6.28158,7.2566-10.97341,7.2566h-7.8719v10.06441l.59936.14372c3.2643.78178,6.25426,1.14606,9.41098,1.14606,8.94994,0,14.62419-4.28344,18.39906-13.89307l26.40927-68.48008h-12.60129l-15.76599,42.84207Z"/><polygon points="364.86391 280.13194 352.27115 280.13194 352.27115 363.0683 400.65399 363.0683 400.65399 351.26302 364.86391 351.26302 364.86391 280.13194"/><rect x="407.53664" y="306.46864" width="12.14253" height="56.59967"/><path d="M413.49605,279.45631c-4.27917,0-7.76033,3.48088-7.76033,7.75948,0,4.27888,3.48117,7.75977,7.76033,7.75977,4.27803,0,7.75863-3.48088,7.75863-7.75977,0-4.2786-3.4806-7.75948-7.75863-7.75948Z"/><path d="M461.66488,304.89255c-7.30043,0-13.90189,3.23471-17.74222,8.56745l-.9329-6.99136h-11.03204v56.59967h12.1431v-29.9317c0-10.48675,5.69531-17.00113,14.86268-17.00113,8.29423,0,12.49998,5.00062,12.49998,14.86268v32.07015h12.14253v-34.43371c0-15.31035-7.79221-23.74205-21.94113-23.74205Z"/><path d="M533.49266,336.28792c0,11.26967-4.90642,17.22653-14.18819,17.22653-8.33408,0-12.38557-5.08258-12.38557-15.53831v-31.5075h-12.14253v34.99635c0,14.37318,7.78083,22.95429,20.81413,22.95429,7.47175,0,14.31968-3.18149,18.08032-8.25439l.93347,6.90342h10.91763v-56.59967h-12.02926v29.81929Z"/><polygon points="605.86287 306.46864 591.91373 306.46864 578.70625 326.33421 565.17149 306.46864 551.00378 306.46864 570.671 335.04424 550.86774 363.0683 564.95121 363.0683 578.04485 343.53598 591.35649 363.0683 605.52648 363.0683 586.19223 335.04965 605.86287 306.46864"/><path d="M195.44707,420.54975v15.73697h-3.59708v-35.77025h21.08245v3.29727h-17.48537v13.48888h14.63766v3.24713h-14.63766Z"/><path d="M217.57125,436.28673v-35.77025h13.33881c7.24396,0,11.64054,3.99683,11.64054,10.34135,0,5.14595-2.69798,8.74269-7.2941,9.99174l7.64371,15.43716h-3.99683l-7.2941-14.83753h-10.44095v14.83753h-3.59708ZM221.16833,418.20173h9.84166c4.94573,0,7.84325-2.69764,7.84325-7.24396,0-4.64592-3.04725-7.19382-7.94319-7.19382h-9.74173v14.43778Z"/><path d="M263.38575,436.88635c-10.04188,0-17.03616-7.64371-17.03616-18.48475s7.04442-18.53455,17.03616-18.53455c10.0412,0,17.03548,7.64371,17.03548,18.53455,0,10.84104-7.04375,18.48475-17.03548,18.48475ZM263.38575,403.36419c-7.89339,0-13.28934,6.09485-13.28934,15.03741s5.39596,15.03741,13.28934,15.03741,13.33881-6.14465,13.33881-15.03741c0-8.94256-5.44542-15.03741-13.33881-15.03741Z"/><path d="M286.34771,436.28673v-35.77025h3.54694l13.03933,31.52374,13.03933-31.52374h3.59708v35.77025h-3.54694v-16.98569c0-6.24492.0996-8.9927.29947-11.44067l-11.6402,28.42635h-3.44734l-11.6402-28.27628c.19988,1.34865.29947,5.29534.29947,10.74076v17.53551h-3.54694Z"/><path d="M340.89676,418.4016c0-10.99078,6.89401-18.48441,16.98535-18.48441,7.69351,0,13.73856,4.64592,15.18782,11.74014h-3.84709c-1.49873-5.14561-5.89531-8.29314-11.49047-8.29314-7.84325,0-13.08879,5.99491-13.08879,15.03741,0,8.9927,5.24554,14.98761,13.08879,14.98761,5.6453,0,10.14148-3.04759,11.69034-7.84359h3.84642c-1.64846,6.74427-7.89339,11.29059-15.5869,11.29059-9.99174,0-16.78547-7.44384-16.78547-18.43461Z"/><path d="M382.26827,436.28673h-3.59708v-35.77025h3.59708v35.77025Z"/><path d="M414.76937,434.03864c-2.69798,1.84834-5.94477,2.84772-9.59199,2.84772-10.04188,0-17.03548-7.64371-17.03548-18.48475s7.04375-18.53455,17.03548-18.53455c10.04188,0,17.03548,7.64371,17.03548,18.53455,0,5.54536-1.84834,10.24141-4.94539,13.48888l3.74682,4.19637-2.44797,2.24809-3.79696-4.29631ZM405.17738,403.36419c-7.89339,0-13.28867,6.09485-13.28867,15.03741s5.39528,15.03741,13.28867,15.03741c2.74744,0,5.19541-.74936,7.19416-2.04822l-4.6466-5.24554,2.39851-2.24809,4.74552,5.29534c2.29823-2.6475,3.64722-6.39466,3.64722-10.7909,0-8.94256-5.44542-15.03741-13.33881-15.03741Z"/><path d="M307.03143,6.33494c-66.64261,0-120.85986,54.21725-120.85986,120.85986s54.21725,120.85986,120.85986,120.85986,120.85986-54.21725,120.85986-120.85986S373.67404,6.33494,307.03143,6.33494ZM307.03143,235.20965c-59.55869,0-108.01485-48.45615-108.01485-108.01485s48.45615-108.01485,108.01485-108.01485,108.01485,48.45615,108.01485,108.01485-48.45615,108.01485-108.01485,108.01485Z"/><path d="M332.21057,102.31216l-93.06131,93.05675c2.9695,3.14397,6.16934,6.00171,9.54253,8.62568l83.51879-83.51879,55.8568,55.86279c2.27302-3.90459,4.23187-8.01274,5.87827-12.28965l-61.73507-61.73678Z"/></svg>