<?xml version="1.0" encoding="UTF-8"?><svg id="a" xmlns="http://www.w3.org/2000/svg" viewBox="0 0 720 720"><path d="M360,7.2C165.46467,7.2,7.2,165.46467,7.2,360s158.26467,352.8,352.8,352.8,352.8-158.26467,352.8-352.8S554.53533,7.2,360,7.2ZM360,675.30435c-173.85679,0-315.30435-141.44755-315.30435-315.30435S186.14321,44.69565,360,44.69565s315.30435,141.44755,315.30435,315.30435-141.44755,315.30435-315.30435,315.30435Z"/><path d="M433.5,287.36549l-271.65374,271.64042c8.66821,9.17751,18.00883,17.5195,27.85543,25.17908l243.7983-243.7983,163.05066,163.06814c6.63514-11.39783,12.35319-23.38984,17.15915-35.87452l-180.20982-180.21481Z"/></svg>