<?xml version="1.0" encoding="UTF-8"?><svg id="a" xmlns="http://www.w3.org/2000/svg" viewBox="0 0 964.72766 221.90238"><path d="M338.08536,54.21667c0-18.20426-12.32399-29.07215-32.96644-29.07215h-36.34177v95.66157h14.52472v-37.12771h22.54442l17.52501,37.12771h16.15654l-19.26399-39.96909c11.50354-4.09998,17.8215-13.51403,17.8215-26.62033ZM283.30187,38.3716h21.81705c11.3074,0,17.7929,5.8226,17.7929,15.97492,0,10.31668-6.43783,16.23373-17.66259,16.23373h-21.94736v-32.20865Z"/><path d="M377.99089,53.83437c-19.7035,0-34.00438,14.4103-34.00438,34.26454s14.30088,34.26545,34.00438,34.26545c19.62858,0,33.87498-14.41121,33.87498-34.26545s-14.2464-34.26454-33.87498-34.26454ZM377.99089,66.54203c11.69878,0,19.86967,8.86467,19.86967,21.55689s-8.17089,21.55689-19.86967,21.55689-19.86967-8.86467-19.86967-21.55689,8.17089-21.55689,19.86967-21.55689Z"/><path d="M467.30317,98.23126c-2.0963,7.15385-8.27578,11.42454-16.53021,11.42454-10.96687,0-18.05352-8.46148-18.05352-21.55689,0-13.1735,7.29051-21.68583,18.57294-21.68583,8.05648,0,13.99032,4.35696,15.87277,11.65519l.17435.67652h13.95399l-.16209-1.04066c-2.30834-14.8035-13.89179-24.00053-30.22995-24.00053-18.87442,0-32.05609,14.19781-32.05609,34.52516,0,20.41725,12.8307,34.13559,31.9276,34.13559,15.6907,0,27.94159-9.53301,30.48512-23.72084l.19024-1.06064h-13.95536l-.18979.64837Z"/><polygon points="532.22854 55.52158 505.34668 84.01256 505.34668 23.45641 491.34138 23.45641 491.34138 120.8061 505.34668 120.8061 505.34668 102.22135 515.07629 92.02272 533.28827 120.8061 549.44118 120.8061 524.79864 81.85224 550.04823 55.52158 532.22854 55.52158"/><path d="M584.48122,104.93742l-17.81061-49.41584h-14.79397l25.92111,67.7672-2.08904,5.77901c-2.87725,7.75409-7.24556,8.36976-12.65726,8.36976h-9.07943v11.60797l.69105.16527c3.76399.90263,7.21287,1.32307,10.85472,1.32307,10.3235,0,16.86802-4.94086,21.2218-16.02487l30.46196-78.98743h-14.53471l-18.18564,49.41584Z"/><polygon points="679.35049 25.14453 664.82577 25.14453 664.82577 120.8061 720.63176 120.8061 720.63176 107.18945 679.35049 107.18945 679.35049 25.14453"/><rect x="728.57064" y="55.52158" width="14.00575" height="65.28452"/><path d="M735.44389,24.36539c-4.93541,0-8.95048,4.01552-8.95048,8.95003s4.01507,8.95003,8.95048,8.95003c4.9345,0,8.94912-4.01552,8.94912-8.95003,0-5.01895-3.93062-8.95003-8.94912-8.95003Z"/><path d="M791.00379,53.70361c-8.42016,0-16.03486,3.7313-20.46447,9.88262l-1.07607-8.06465h-12.72446v65.28452h14.0053v-34.52425c0-12.09561,6.56904-19.60906,17.14362-19.60906,9.56661,0,14.41757,5.76721,14.41757,17.14271v36.99059h14.00575v-39.71665c0-17.65941-8.98771-27.38584-25.30725-27.38584Z"/><path d="M873.85191,89.91689c0,12.99824-5.65915,19.86877-16.3654,19.86877-9.61292,0-14.2859-5.86165-14.2859-17.92185v-36.34223h-14.0053v40.36592c0,16.5788,8.975,26.47686,24.00779,26.47686,8.61812,0,16.51659-3.67045,20.85449-9.52121l1.07653,7.96294h12.59278V55.52158h-13.87499v34.3953Z"/><polygon points="957.32616 55.52158 941.23682 55.52158 926.00243 78.43604 910.39119 55.52158 894.0494 55.52158 916.73503 88.48212 893.89321 120.8061 910.13648 120.8061 925.23964 98.27666 940.59344 120.8061 956.9375 120.8061 934.63644 88.48757 957.32616 55.52158"/><path d="M273.8275,177.03586v18.15148h-4.14898v-41.25845h24.31712v3.80316h-20.16814v15.55847h16.8835v3.74533h-16.8835Z"/><path d="M299.34618,195.18735v-41.25845h15.38537c8.3554,0,13.42654,4.61006,13.42654,11.92802,0,5.93548-3.11193,10.08407-8.41323,11.52476l8.81648,17.80567h-4.61006l-8.41323-17.11404h-12.0429v17.11404h-4.14898ZM303.49515,174.32758h11.35166c5.70455,0,9.04663-3.11154,9.04663-8.3554,0-5.35874-3.51479-8.29756-9.1619-8.29756h-11.23639v16.65296Z"/><path d="M352.18996,195.87897c-11.5826,0-19.65001-8.81648-19.65001-21.32085s8.12524-21.37829,19.65001-21.37829c11.58181,0,19.64923,8.81648,19.64923,21.37829,0,12.50437-8.12446,21.32085-19.64923,21.32085ZM352.18996,157.21353c-9.10446,0-15.32832,7.02997-15.32832,17.34459s6.22386,17.34459,15.32832,17.34459,15.38537-7.08741,15.38537-17.34459c0-10.31461-6.28091-17.34459-15.38537-17.34459Z"/><path d="M378.67496,195.18735v-41.25845h4.09115l15.03995,36.36041,15.03995-36.36041h4.14898v41.25845h-4.09115v-19.59179c0-7.20308.11488-10.37244.34542-13.196l-13.42615,32.78779h-3.97627l-13.42615-32.61468c.23054,1.55557.34542,6.1078.34542,12.38871v20.22597h-4.09115Z"/><path d="M441.59343,174.55812c0-12.67708,7.95175-21.32046,19.5914-21.32046,8.87392,0,15.84645,5.35874,17.51808,13.54142h-4.43735c-1.72868-5.93509-6.79982-9.56555-13.25344-9.56555-9.04663,0-15.097,6.9147-15.097,17.34459,0,10.37244,6.05036,17.28715,15.097,17.28715,6.51145,0,11.69748-3.51518,13.48398-9.04702h4.43657c-1.90139,7.77904-9.10446,13.0229-17.97838,13.0229-11.52476,0-19.36085-8.58594-19.36085-21.26302Z"/><path d="M489.31254,195.18735h-4.14898v-41.25845h4.14898v41.25845Z"/><path d="M526.80026,192.59433c-3.11193,2.13193-6.85687,3.28464-11.06368,3.28464-11.5826,0-19.64923-8.81648-19.64923-21.32085s8.12446-21.37829,19.64923-21.37829c11.5826,0,19.64923,8.81648,19.64923,21.37829,0,6.39618-2.13193,11.81275-5.70416,15.55847l4.32169,4.84021-2.82356,2.59301-4.37952-4.95548ZM515.73658,157.21353c-9.10446,0-15.32754,7.02997-15.32754,17.34459s6.22308,17.34459,15.32754,17.34459c3.16898,0,5.99253-.86434,8.29796-2.36247l-5.35952-6.05036,2.76651-2.59301,5.47362,6.1078c2.65084-3.05371,4.20681-7.37579,4.20681-12.44654,0-10.31461-6.28091-17.34459-15.38537-17.34459Z"/><path d="M110.52649,6.55119C52.95992,6.55119,6.12649,53.38461,6.12649,110.95119s46.83342,104.4,104.4,104.4,104.4-46.83342,104.4-104.4S168.09307,6.55119,110.52649,6.55119ZM110.52649,204.25554c-51.44742,0-93.30435-41.85693-93.30435-93.30435S59.07908,17.64684,110.52649,17.64684s93.30435,41.85693,93.30435,93.30435-41.85693,93.30435-93.30435,93.30435Z"/><path d="M132.27649,89.4573l-80.38733,80.38339c2.56508,2.71579,5.32914,5.18434,8.24293,7.45095l72.1444-72.1444,48.24969,48.25486c1.96346-3.37283,3.65554-6.92148,5.07771-10.61593l-53.32739-53.32887Z"/></svg>