<?xml version="1.0" encoding="UTF-8"?><svg id="a" xmlns="http://www.w3.org/2000/svg" viewBox="0 0 497.28125 444.66988"><polygon points="7.30114 436.67116 20.10888 436.67116 20.10888 389.69835 63.80038 389.69835 63.80038 377.93517 20.10888 377.93517 20.10888 339.74353 72.30045 339.74353 72.30045 327.8307 7.30114 327.8307 7.30114 436.67116"/><path d="M129.2891,401.78611c0,16.35297-7.47067,25.35863-21.03478,25.35863-12.14642,0-18.05177-7.27046-18.05177-22.22798v-42.63886h-12.50842v45.92017c0,18.9497,10.19886,30.2629,27.27989,30.2629,10.40717,0,19.72832-4.54429,24.66495-11.80261l1.09815,10.01281h10.91074v-74.24462h-12.35877v39.35957Z"/><polygon points="152.15616 373.14617 192.86667 373.14617 152.36446 426.81004 152.15616 427.0871 152.15616 436.67116 208.6554 436.67116 208.6554 425.95154 167.80534 425.95154 208.6554 372.16127 208.6554 362.42655 152.15616 362.42655 152.15616 373.14617"/><polygon points="216.86626 373.14617 257.57678 373.14617 217.07456 426.81004 216.86626 427.0871 216.86626 436.67116 273.3655 436.67116 273.3655 425.95154 232.51544 425.95154 273.3655 372.16127 273.3655 362.42655 216.86626 362.42655 216.86626 373.14617"/><path d="M322.24845,360.4881c-11.48712,0-20.6121,4.59283-26.10286,13.02919v-47.62503h-12.36079v110.77892h10.94714l.85547-12.08878c5.39976,8.98341,14.62788,13.87859,26.36375,13.87859,20.68693,0,34.58675-15.57738,34.58675-38.76296,0-23.45253-13.7805-39.20991-34.28946-39.20991ZM320.31101,371.80432c14.40744,0,23.71848,10.83187,23.71848,27.59538s-9.31104,27.59538-23.71848,27.59538c-14.58945,0-24.01577-10.83187-24.01577-27.59538s9.42631-27.59538,24.01577-27.59538Z"/><path d="M398.39512,360.4881c-18.36726,0-30.70782,10.06438-30.70782,25.04314v1.03546h11.46487v-1.03546c0-9.10273,6.90643-14.32351,18.94566-14.32351,11.97856,0,18.05177,5.92355,18.05177,17.60482v1.43083l-22.9075,1.86059c-17.49561,1.39443-27.94121,10.36571-27.94121,23.99757,0,13.58332,10.00472,22.35944,25.49008,22.35944,11.26264,0,20.67884-4.51496,25.84804-12.23035l1.10422,10.44054h10.6175v-47.70997c0-18.09525-10.92288-28.47309-29.96561-28.47309ZM416.1496,400.07113v2.75853c0,15.54907-8.80342,25.20897-22.97222,25.20897-9.76607,0-15.36807-4.45935-15.36807-12.2354,0-8.2321,6.27342-13.13536,18.13064-14.1779l20.20965-1.5542Z"/><rect x="445.09997" y="325.89225" width="12.36079" height="110.77892"/><rect x="474.72582" y="325.89225" width="12.36079" height="110.77892"/><path d="M254.80182,6.6496C175.93607,2.63554,108.44529,63.1706,104.25024,141.98773c-4.19234,78.81713,56.5183,146.35383,135.33543,150.55158,2.5797.13506,5.13778.2053,7.69046.2053,75.47298,0,138.80383-59.30329,142.86112-135.54342,4.19504-78.81713-56.51559-146.35383-135.33543-150.55158ZM374.94541,156.3908c-3.74934,70.44325-64.19796,124.68979-134.54936,120.95666-70.44055-3.75474-124.7006-64.11152-120.95396-134.54936,3.62778-68.14178,60.22171-121.14035,127.67738-121.14035,2.27716,0,4.57322.05943,6.87199.18369,70.44325,3.75474,124.7033,64.11152,120.95396,134.54936Z"/><path d="M331.91176,111.71209c-4.20045,0-7.60673,3.40358-7.60673,7.60673,0,33.10114-26.93148,60.03262-60.03533,60.03262-4.20045,0-7.60673,3.40358-7.60673,7.60673s3.40628,7.60673,7.60673,7.60673c41.49123,0,75.24878-33.75485,75.24878-75.24608,0-4.20315-3.40628-7.60673-7.60673-7.60673Z"/><path d="M315.73126,201.80965c-13.88984,8.01732-30.06493,10.15671-45.55662,5.99678-15.48898-4.14912-28.43608-14.08433-36.4534-27.96876-2.10157-3.63589-6.75313-4.88927-10.39172-2.78229-3.63859,2.09617-4.88386,6.75313-2.78499,10.38902,10.05136,17.40687,26.27778,29.85424,45.69168,35.05685,6.483,1.73961,13.06055,2.5986,19.59758,2.5986,13.03894,0,25.91041-3.41979,37.50418-10.11889,3.63859-2.10157,4.88386-6.75313,2.78499-10.38902-2.10157-3.63589-6.75583-4.88386-10.39172-2.78229Z"/><path d="M240.00166,235.63473c-28.66569-16.55327-38.52255-53.34432-21.97198-82.01541,2.09887-3.63589.8536-8.29284-2.78499-10.38902-3.65209-2.10157-8.28744-.859-10.39172,2.78229-20.74291,35.93205-8.39009,82.04783,27.54197,102.79344,1.19665.69152,2.50676,1.02107,3.79526,1.02107,2.62832,0,5.1864-1.36143,6.59646-3.80336,2.09887-3.63589.8536-8.28744-2.78499-10.38902Z"/><path d="M240.49059,119.31882c0-4.20315-3.40628-7.60673-7.60673-7.60673-41.49123,0-75.24878,33.75485-75.24878,75.24608,0,4.20315,3.40628,7.60673,7.60673,7.60673s7.60673-3.40358,7.60673-7.60673c0-33.10114,26.93148-60.03262,60.03533-60.03262,4.20045,0,7.60673-3.40358,7.60673-7.60673Z"/><path d="M181.42231,104.46193c28.67379-16.53706,65.46214-6.6937,82.01001,21.97739,1.41005,2.44193,3.96544,3.80336,6.59646,3.80336,1.2885,0,2.5959-.32955,3.79526-1.02107,3.63859-2.09617,4.88386-6.75313,2.78499-10.38902-20.74832-35.93205-66.85869-48.28758-102.79344-27.54197-3.63859,2.09617-4.88386,6.74773-2.78499,10.38902,2.09887,3.63589,6.75043,4.88927,10.39172,2.78229Z"/><path d="M257.15191,70.64226c13.88714,8.01732,23.82234,20.96712,27.97146,36.4561,4.15182,15.48898,2.02054,31.66948-5.99678,45.55391-2.09887,3.63589-.8536,8.29284,2.78499,10.38902,1.19936.69152,2.50676,1.02107,3.79526,1.02107,2.63102,0,5.1864-1.36143,6.59646-3.80336,10.04866-17.40687,12.71749-37.68247,7.51488-57.09906-5.20261-19.4166-17.65268-35.64032-35.05955-45.68898-3.64939-2.10157-8.29014-.8536-10.39172,2.78229-2.09887,3.64129-.8536,8.29284,2.78499,10.38902Z"/></svg>