<?xml version="1.0" encoding="UTF-8"?>
<svg id="a" xmlns="http://www.w3.org/2000/svg" version="1.1" viewBox="0 0 733.5 221.9">
  <!-- Generator: Adobe Illustrator 29.7.1, SVG Export Plug-In . SVG Version: 2.1.1 Build 8)  -->
  <polygon points="264.6 163.5 277 163.5 277 118.2 319.1 118.2 319.1 106.9 277 106.9 277 70.1 327.2 70.1 327.2 58.6 264.6 58.6 264.6 163.5"/>
  <path d="M382.1,129.9c0,15.8-7.2,24.4-20.3,24.4s-17.4-7-17.4-21.4v-41.1h-12v44.2c0,18.3,9.8,29.1,26.3,29.1s19-4.4,23.8-11.4l1.1,9.6h10.5v-71.5h-11.9v37.9Z"/>
  <polygon points="404.2 102.3 443.4 102.3 404.4 154 404.2 154.2 404.2 163.5 458.6 163.5 458.6 153.1 419.2 153.1 458.6 101.3 458.6 92 404.2 92 404.2 102.3"/>
  <polygon points="466.5 102.3 505.7 102.3 466.7 154 466.5 154.2 466.5 163.5 520.9 163.5 520.9 153.1 481.6 153.1 520.9 101.3 520.9 92 466.5 92 466.5 102.3"/>
  <path d="M568,90.1c-11.1,0-19.9,4.4-25.1,12.5v-45.9h-11.9v106.7h10.5l.8-11.6c5.2,8.7,14.1,13.4,25.4,13.4,19.9,0,33.3-15,33.3-37.3s-13.3-37.8-33-37.8ZM566.1,101c13.9,0,22.8,10.4,22.8,26.6s-9,26.6-22.8,26.6-23.1-10.4-23.1-26.6,9.1-26.6,23.1-26.6Z"/>
  <path d="M641.3,90.1c-17.7,0-29.6,9.7-29.6,24.1v1h11v-1c0-8.8,6.7-13.8,18.2-13.8s17.4,5.7,17.4,17v1.4l-22.1,1.8c-16.9,1.3-26.9,10-26.9,23.1s9.6,21.5,24.6,21.5,19.9-4.3,24.9-11.8l1.1,10.1h10.2v-46c0-17.4-10.5-27.4-28.9-27.4ZM636.3,155.2c-9.4,0-14.8-4.3-14.8-11.8s6-12.7,17.5-13.7l19.5-1.5v2.7c0,15-8.5,24.3-22.1,24.3Z"/>
  <rect x="686.3" y="56.8" width="11.9" height="106.7"/>
  <rect x="714.8" y="56.8" width="11.9" height="106.7"/>
  <path d="M115.5,7.8C58.6,4.9,9.9,48.6,6.9,105.5c-3,56.9,40.8,105.6,97.6,108.6,1.9,0,3.7.1,5.5.1,54.4,0,100.1-42.8,103-97.8,3-56.9-40.8-105.6-97.6-108.6ZM202.1,115.8c-2.7,50.8-46.3,89.9-97.1,87.2-50.8-2.7-89.9-46.2-87.2-97.1C20.5,56.9,61.3,18.7,109.9,18.7s3.3,0,5,.1c50.8,2.7,89.9,46.2,87.2,97.1h0Z"/>
  <path d="M171.1,83.6c-3,0-5.5,2.5-5.5,5.5,0,23.9-19.4,43.3-43.3,43.3s-5.5,2.5-5.5,5.5,2.5,5.5,5.5,5.5c29.9,0,54.3-24.3,54.3-54.3s-2.5-5.5-5.5-5.5Z"/>
  <path d="M159.4,148.6c-10,5.8-21.7,7.3-32.9,4.3-11.2-3-20.5-10.2-26.3-20.2-1.5-2.6-4.9-3.5-7.5-2-2.6,1.5-3.5,4.9-2,7.5,7.3,12.6,19,21.5,33,25.3,4.7,1.3,9.4,1.9,14.1,1.9,9.4,0,18.7-2.5,27.1-7.3,2.6-1.5,3.5-4.9,2-7.5-1.5-2.6-4.9-3.5-7.5-2h0Z"/>
  <path d="M104.8,173c-20.7-11.9-27.8-38.5-15.8-59.2,1.5-2.6.6-6-2-7.5-2.6-1.5-6-.6-7.5,2-15,25.9-6.1,59.2,19.9,74.1.9.5,1.8.7,2.7.7,1.9,0,3.7-1,4.8-2.7,1.5-2.6.6-6-2-7.5Z"/>
  <path d="M105.2,89.1c0-3-2.5-5.5-5.5-5.5-29.9,0-54.3,24.3-54.3,54.3s2.5,5.5,5.5,5.5,5.5-2.5,5.5-5.5c0-23.9,19.4-43.3,43.3-43.3s5.5-2.5,5.5-5.5h0Z"/>
  <path d="M62.6,78.4c20.7-11.9,47.2-4.8,59.2,15.9,1,1.8,2.9,2.7,4.8,2.7s1.9-.2,2.7-.7c2.6-1.5,3.5-4.9,2-7.5-15-25.9-48.2-34.8-74.1-19.9-2.6,1.5-3.5,4.9-2,7.5,1.5,2.6,4.9,3.5,7.5,2Z"/>
  <path d="M117.2,54c10,5.8,17.2,15.1,20.2,26.3,3,11.2,1.5,22.8-4.3,32.9-1.5,2.6-.6,6,2,7.5.9.5,1.8.7,2.7.7,1.9,0,3.7-1,4.8-2.7,7.2-12.6,9.2-27.2,5.4-41.2-3.8-14-12.7-25.7-25.3-33-2.6-1.5-6-.6-7.5,2-1.5,2.6-.6,6,2,7.5Z"/>
</svg>