<?xml version="1.0" encoding="UTF-8"?><svg id="a" xmlns="http://www.w3.org/2000/svg" viewBox="0 0 733.49301 221.90238"><polygon points="264.64507 163.47195 276.98077 163.47195 276.98077 118.23043 319.06188 118.23043 319.06188 106.90084 276.98077 106.90084 276.98077 70.11685 327.24865 70.11685 327.24865 58.64315 264.64507 58.64315 264.64507 163.47195" fill="#fff"/><path d="M382.13677,129.87271c0,15.75018-7.19531,24.42395-20.25946,24.42395-11.69873,0-17.38641-7.0025-17.38641-21.40875v-41.06726h-12.04736v44.22766c0,18.25122,9.82294,29.14746,26.27435,29.14746,10.02362,0,19.00116-4.37677,23.75586-11.36761l1.05768,9.6438h10.50861v-71.50812h-11.90326v37.90887Z" fill="#fff"/><polygon points="404.161 102.28835 443.37096 102.28835 404.36163 153.97427 404.161 154.24111 404.161 163.47195 458.57775 163.47195 458.57775 153.14742 419.23339 153.14742 458.57775 101.33975 458.57775 91.96383 404.161 91.96383 404.161 102.28835" fill="#fff"/><polygon points="466.48602 102.28835 505.69598 102.28835 466.68664 153.97427 466.48602 154.24111 466.48602 163.47195 520.90276 163.47195 520.90276 153.14742 481.55834 153.14742 520.90276 101.33975 520.90276 91.96383 466.48602 91.96383 466.48602 102.28835" fill="#fff"/><path d="M567.984,90.09683c-11.06372,0-19.85242,4.42352-25.14075,12.54895v-45.86963h-11.90521v106.6958h10.54364l.82391-11.64325c5.20074,8.65234,14.08875,13.36707,25.39203,13.36707,19.9245,0,33.31195-15.00323,33.31195-37.33423,0-22.58813-13.27258-37.76471-33.02557-37.76471ZM566.11797,100.99594c13.8764,0,22.84424,10.43268,22.84424,26.57831s-8.96783,26.57825-22.84424,26.57825c-14.05176,0-23.13062-10.43262-23.13062-26.57825s9.07886-26.57831,23.13062-26.57831Z" fill="#fff"/><path d="M641.32403,90.09683c-17.69031,0-29.57599,9.69342-29.57599,24.12012v.99725h11.0423v-.99725c0-8.76727,6.65186-13.79559,18.24738-13.79559,11.53705,0,17.38641,5.7052,17.38641,16.95593v1.37811l-22.06323,1.79199c-16.85071,1.34302-26.91132,9.98364-26.91132,23.11304,0,13.0827,9.63599,21.53534,24.55054,21.53534,10.84753,0,19.91669-4.34857,24.89539-11.77954l1.06348,10.05573h10.2262v-45.95148c0-17.42828-10.52032-27.42365-28.86115-27.42365ZM636.29858,155.15756c-9.40613,0-14.80164-4.29498-14.80164-11.78442,0-7.92865,6.04224-12.65118,17.4624-13.65533l19.46478-1.49689v2.65686c0,14.97595-8.47894,24.27979-22.12555,24.27979Z" fill="#fff"/><rect x="686.30743" y="56.77615" width="11.90515" height="106.6958" fill="#fff"/><rect x="714.8413" y="56.77615" width="11.90521" height="106.6958" fill="#fff"/><path d="M115.48742,7.83865C58.60137,4.94326,9.92004,48.60739,6.89416,105.4584c-3.02399,56.85101,40.76678,105.56543,97.6178,108.59332,1.86078.09741,3.70593.14807,5.54718.14807,54.4389,0,100.11963-42.77563,103.04614-97.76788,3.02588-56.85101-40.76489-105.56543-97.61786-108.59326ZM202.14733,115.84738c-2.70441,50.81091-46.30615,89.93915-97.05084,87.2464-50.80896-2.70831-89.9469-46.24384-87.24445-97.05084C20.4688,56.89205,61.29015,18.66403,109.9461,18.66403c1.64258,0,3.29871.04291,4.95679.13251,50.81097,2.70831,89.94885,46.24384,87.24445,97.05084Z" fill="#fff"/><path d="M171.10705,83.62051c-3.02979,0-5.48676,2.45502-5.48676,5.48676,0,23.87592-19.42572,43.3017-43.30365,43.3017-3.02979,0-5.48676,2.45502-5.48676,5.48676s2.45697,5.48676,5.48676,5.48676c29.92773,0,54.27716-24.34747,54.27716-54.27521,0-3.03174-2.45697-5.48676-5.48676-5.48676Z" fill="#fff"/><path d="M159.43603,148.60812c-10.0188,5.78296-21.68591,7.32605-32.86011,4.3255-11.17224-2.99274-20.51105-10.15906-26.29395-20.17395-1.51587-2.62256-4.87109-3.52661-7.49561-2.00684-2.62451,1.51196-3.52271,4.87103-2.00879,7.49359,7.25006,12.55566,18.95422,21.53394,32.95752,25.28662,4.67621,1.25476,9.42059,1.87439,14.1358,1.87439,9.40503,0,18.68927-2.46674,27.05188-7.29883,2.62451-1.51587,3.52271-4.87103,2.00879-7.49359-1.51587-2.62256-4.87299-3.52277-7.49554-2.0069Z" fill="#fff"/><path d="M104.81206,173.00625c-20.6767-11.93994-27.78644-38.47742-15.84851-59.15796,1.51398-2.62256.61572-5.98163-2.00879-7.49359-2.63428-1.51587-5.97778-.61963-7.49561,2.00684-14.96191,25.91791-6.05176,59.18134,19.86615,74.1452.8631.49884,1.80811.73651,2.73749.73651,1.89581,0,3.74097-.98199,4.75806-2.74335,1.51392-2.62256.61572-5.97778-2.00879-7.49365Z" fill="#fff"/><path d="M105.16473,89.10726c0-3.03174-2.45697-5.48676-5.48676-5.48676-29.9278,0-54.27716,24.34747-54.27716,54.27521,0,3.03174,2.45691,5.48676,5.48676,5.48676s5.48676-2.45502,5.48676-5.48676c0-23.87598,19.42572-43.3017,43.30365-43.3017,3.02979,0,5.48676-2.45502,5.48676-5.48676Z" fill="#fff"/><path d="M62.55859,78.39095c20.6825-11.92822,47.21802-4.82819,59.15405,15.85236,1.01709,1.76135,2.86029,2.74335,4.75806,2.74335.92938,0,1.87244-.23767,2.73755-.73651,2.62451-1.51196,3.52271-4.87103,2.00879-7.49359-14.96582-25.91791-48.22534-34.82996-74.1452-19.86609-2.62451,1.51196-3.52277,4.86713-2.00885,7.49359,1.51398,2.62256,4.86914,3.52667,7.49561,2.0069Z" fill="#fff"/><path d="M117.18255,53.99673c10.01685,5.7829,17.18317,15.12366,20.1759,26.2959,2.99475,11.17224,1.45746,22.84326-4.3255,32.85815-1.51392,2.62256-.61566,5.98163,2.00885,7.49359.86511.49884,1.80811.73651,2.73755.73651,1.89771,0,3.74097-.98199,4.758-2.74335,7.24817-12.55566,9.17316-27.18048,5.42053-41.18573-3.75269-14.00525-12.73291-25.70746-25.28857-32.95557-2.63232-1.51587-5.97968-.61572-7.49554,2.00684-1.51392,2.62646-.61572,5.98169,2.00879,7.49365Z" fill="#fff"/></svg>