<?xml version="1.0" encoding="UTF-8"?>
<svg id="a" xmlns="http://www.w3.org/2000/svg" version="1.1" viewBox="0 0 309.3 304">
  <!-- Generator: Adobe Illustrator 29.7.1, SVG Export Plug-In . SVG Version: 2.1.1 Build 8)  -->
  <path d="M160.8,6.6C81.9,2.6,14.4,63.2,10.3,142c-4.2,78.8,56.5,146.4,135.3,150.6,2.6.1,5.1.2,7.7.2,75.5,0,138.8-59.3,142.9-135.5C300.3,78.4,239.6,10.8,160.8,6.6h0ZM280.9,156.4c-3.7,70.4-64.2,124.7-134.5,121-70.4-3.8-124.7-64.1-121-134.5,3.6-68.1,60.2-121.1,127.7-121.1s4.6,0,6.9.2c70.4,3.8,124.7,64.1,121,134.5h0Z"/>
  <path d="M237.9,111.7c-4.2,0-7.6,3.4-7.6,7.6,0,33.1-26.9,60-60,60s-7.6,3.4-7.6,7.6,3.4,7.6,7.6,7.6c41.5,0,75.2-33.8,75.2-75.2s-3.4-7.6-7.6-7.6h0Z"/>
  <path d="M221.7,201.8c-13.9,8-30.1,10.2-45.6,6-15.5-4.1-28.4-14.1-36.5-28-2.1-3.6-6.8-4.9-10.4-2.8-3.6,2.1-4.9,6.8-2.8,10.4,10.1,17.4,26.3,29.9,45.7,35.1,6.5,1.7,13.1,2.6,19.6,2.6,13,0,25.9-3.4,37.5-10.1,3.6-2.1,4.9-6.8,2.8-10.4-2.1-3.6-6.8-4.9-10.4-2.8Z"/>
  <path d="M146,235.6c-28.7-16.6-38.5-53.3-22-82,2.1-3.6.9-8.3-2.8-10.4-3.7-2.1-8.3-.9-10.4,2.8-20.7,35.9-8.4,82,27.5,102.8,1.2.7,2.5,1,3.8,1,2.6,0,5.2-1.4,6.6-3.8,2.1-3.6.9-8.3-2.8-10.4h0Z"/>
  <path d="M146.5,119.3c0-4.2-3.4-7.6-7.6-7.6-41.5,0-75.2,33.8-75.2,75.2s3.4,7.6,7.6,7.6,7.6-3.4,7.6-7.6c0-33.1,26.9-60,60-60s7.6-3.4,7.6-7.6h0Z"/>
  <path d="M87.4,104.5c28.7-16.5,65.5-6.7,82,22,1.4,2.4,4,3.8,6.6,3.8s2.6-.3,3.8-1c3.6-2.1,4.9-6.8,2.8-10.4-20.7-35.9-66.9-48.3-102.8-27.5-3.6,2.1-4.9,6.7-2.8,10.4,2.1,3.6,6.8,4.9,10.4,2.8h0Z"/>
  <path d="M163.2,70.6c13.9,8,23.8,21,28,36.5,4.2,15.5,2,31.7-6,45.6-2.1,3.6-.9,8.3,2.8,10.4,1.2.7,2.5,1,3.8,1,2.6,0,5.2-1.4,6.6-3.8,10-17.4,12.7-37.7,7.5-57.1s-17.7-35.6-35.1-45.7c-3.6-2.1-8.3-.9-10.4,2.8-2.1,3.6-.9,8.3,2.8,10.4h0Z"/>
</svg>