<?xml version="1.0" encoding="UTF-8"?><svg id="a" xmlns="http://www.w3.org/2000/svg" viewBox="0 0 223.2 223.2"><path d="M117.33988,3.74724C57.83871.71874,6.91943,46.39017,3.75445,105.85469c-3.16301,59.46452,42.64088,110.41842,102.10541,113.58551,1.94632.10189,3.8763.15488,5.80219.15488,56.94152,0,104.72227-44.74209,107.78332-102.2624C222.61035,57.86815,176.80646,6.91427,117.33988,3.74724ZM207.98365,116.72127c-2.82873,53.14676-48.43491,94.07377-101.5124,91.25723-53.14471-2.83282-94.08188-48.36972-91.25519-101.5124C17.95313,55.05569,60.65109,15.07028,111.54382,15.07028c1.71809,0,3.45036.04488,5.18466.1386,53.14681,2.83281,94.08393,48.36972,91.25519,101.5124h-.00002Z"/><path d="M124.97603,95.09933l10.0264-5.57681c-.00577-.01056-.00814-.02197-.01404-.03253-15.21811-27.35636-49.85302-37.23347-77.21139-22.01744-.00032.00019-.00065.0005-.00097.00069l5.57786,10.02827c.00077-.00043.00161-.00074.00238-.00118,21.83013-12.12888,49.46317-4.25935,61.60025,17.56887.0059.01063.01354.01956.0195.03013Z"/><path d="M103.99801,91.76569l.18355-11.47152c-.01203-.00029-.02309-.00393-.03519-.00411-31.30035-.49891-57.17165,24.55725-57.67336,55.8583,0,.00037.00011.00081.00011.00118l11.47367.18357c.00001-.00089.00016-.00176.00017-.00265.41115-24.96989,21.04287-44.96603,46.01521-44.56295.01215.00021.02371-.00195.03584-.00183Z"/><path d="M90.62198,108.26636l-9.84286-5.89472c-.00626.01028-.01495.01803-.02116.02842-16.08225,26.85744-7.31862,61.79072,19.53803,77.87575.00032.00019.00076.00031.00108.0005l5.89581-9.8447c-.00076-.00045-.00145-.00102-.00221-.00147-21.41899-12.84101-28.42029-40.70668-15.58504-62.13182.00626-.01042.01017-.02151.01634-.03195Z"/><path d="M98.22397,128.10067l-10.0264,5.57681c.00577.01056.00814.02197.01404.03253,15.21811,27.35636,49.85302,37.23347,77.21139,22.01744.00032-.00019.00065-.0005.00097-.00069l-5.57786-10.02827c-.00077.00043-.00161.00074-.00238.00118-21.83013,12.12888-49.46317,4.25935-61.60025-17.56887-.0059-.01063-.01354-.01956-.0195-.03013Z"/><path d="M119.20199,131.43431l-.18355,11.47152c.01203.00029.02309.00393.03519.00411,31.30035.49891,57.17165-24.55725,57.67336-55.8583,0-.00037-.00011-.00081-.00011-.00118l-11.47367-.18357c-.00001.00089-.00016.00176-.00017.00265-.41115,24.96989-21.04287,44.96603-46.01521,44.56295-.01215-.00021-.02371.00195-.03584.00183Z"/><path d="M132.57802,114.93364l9.84286,5.89472c.00626-.01028.01495-.01803.02116-.02842,16.08225-26.85744,7.31862-61.79072-19.53803-77.87575-.00032-.00019-.00076-.00031-.00108-.0005l-5.89581,9.8447c.00076.00045.00145.00102.00221.00147,21.41899,12.84101,28.42029,40.70668,15.58504,62.13182-.00626.01042-.01017.02151-.01634.03195Z"/></svg>