<?xml version="1.0" encoding="UTF-8"?><svg id="a" xmlns="http://www.w3.org/2000/svg" viewBox="0 0 493.2 439.2"><path d="M254.20764,3.78861C175.34478-.22535,107.85637,60.30756,103.6615,139.12183c-4.19225,78.81428,56.51623,146.34857,135.33051,150.54623,2.57965.13505,5.13765.20528,7.69022.20528,75.47029,0,138.79889-59.30116,142.85601-135.53859C393.73312,75.52047,333.02464,7.98619,254.20764,3.78861ZM374.34689,153.5244c-3.7492,70.44071-64.19563,124.68537-134.54453,120.95233-70.438-3.75462-124.69612-64.10923-120.94964-134.54453,3.62771-68.13937,60.21959-121.13603,127.67281-121.13603,2.27716,0,4.57311.05949,6.87174.1837,70.44079,3.75461,124.69884,64.10923,120.94964,134.54453h-.00002Z"/><path d="M264.32858,124.86667l13.28899-7.3915c-.00765-.014-.01079-.02911-.0186-.04312-20.17008-36.25811-66.0752-49.34924-102.33598-29.18192-.00043.00025-.00086.00066-.00128.00091l7.3929,13.29147c.00102-.00058.00213-.00098.00316-.00156,28.93366-16.07562,65.55848-5.64535,81.64497,23.28578.00781.01409.01795.02593.02585.03993Z"/><path d="M236.52432,120.44826l.24327-15.20435c-.01595-.00038-.03061-.00521-.04664-.00545-41.48549-.66126-75.7753,32.54818-76.44027,74.0346,0,.00049.00015.00107.00015.00157l15.2072.2433c.00001-.00118.00022-.00234.00023-.00351.54493-33.09509,27.89023-59.59798,60.98856-59.06373.01611.00028.03143-.00258.04751-.00242Z"/><path d="M218.79574,142.31826l-13.04572-7.81286c-.0083.01362-.01982.0239-.02804.03767-21.31541,35.59686-9.7001,81.89742,25.89571,103.21651.00043.00025.001.00041.00143.00066l7.8143-13.04817c-.00101-.0006-.00192-.00136-.00293-.00195-28.38873-17.01947-37.66825-53.95263-20.65641-82.34951.00829-.01381.01348-.02851.02166-.04235Z"/><path d="M228.87142,168.60666l-13.28899,7.3915c.00765.014.01079.02911.0186.04312,20.17008,36.25811,66.0752,49.34924,102.33598,29.18192.00043-.00025.00086-.00066.00128-.00091l-7.3929-13.29147c-.00102.00058-.00213.00098-.00316.00156-28.93366,16.07562-65.55848,5.64535-81.64497-23.28578-.00781-.01409-.01795-.02593-.02585-.03993Z"/><path d="M256.67568,173.02506l-.24327,15.20435c.01595.00038.03061.00521.04664.00545,41.48549.66126,75.7753-32.54818,76.44027-74.0346,0-.00049-.00015-.00107-.00015-.00157l-15.2072-.2433c-.00001.00118-.00022.00234-.00023.00351-.54493,33.09509-27.89023,59.59798-60.98856,59.06373-.01611-.00028-.03143.00258-.04751.00242Z"/><path d="M274.40426,151.15507l13.04572,7.81286c.0083-.01362.01982-.0239.02804-.03767,21.31541-35.59686,9.7001-81.89742-25.89571-103.21651-.00043-.00025-.001-.00041-.00143-.00066l-7.8143,13.04817c.00101.0006.00192.00136.00293.00195,28.38873,17.01947,37.66825,53.95263,20.65641,82.34951-.00829.01381-.01348.02851-.02166.04235Z"/><polygon points="6.70727 433.81019 19.515 433.81019 19.515 386.83738 63.20651 386.83738 63.20651 375.0742 19.515 375.0742 19.515 336.88255 71.70658 336.88255 71.70658 324.9697 6.70727 324.9697 6.70727 433.81019"/><path d="M128.69522,398.92512c0,16.35297-7.47067,25.35864-21.03478,25.35864-12.14642,0-18.05177-7.27045-18.05177-22.22797v-42.63885h-12.50842v45.92017c0,18.94971,10.19886,30.26291,27.27989,30.26291,10.40717,0,19.72832-4.54428,24.66495-11.80261l1.09814,10.01282h10.91074v-74.24463h-12.35876v39.35956l.00002-.00003Z"/><polygon points="151.56228 370.28519 192.27279 370.28519 151.77058 423.94904 151.56228 424.22611 151.56228 433.81019 208.06152 433.81019 208.06152 423.09055 167.21147 423.09055 208.06152 369.30027 208.06152 359.56556 151.56228 359.56556 151.56228 370.28519"/><polygon points="216.27238 370.28519 256.98291 370.28519 216.48068 423.94904 216.27238 424.22611 216.27238 433.81019 272.77163 433.81019 272.77163 423.09055 231.92157 423.09055 272.77163 369.30027 272.77163 359.56556 216.27238 359.56556 216.27238 370.28519"/><path d="M321.65457,357.62711c-11.48712,0-20.61209,4.59283-26.10287,13.02917v-47.62503h-12.36078v110.77893h10.94714l.85547-12.08878c5.39975,8.9834,14.62787,13.8786,26.36374,13.8786,20.68692,0,34.58676-15.57739,34.58676-38.76297,0-23.45255-13.78049-39.2099-34.28946-39.2099v-.00003ZM319.71713,368.94334c14.40744,0,23.71848,10.83188,23.71848,27.59537s-9.31104,27.59537-23.71848,27.59537c-14.58945,0-24.01578-10.83188-24.01578-27.59537s9.4263-27.59537,24.01578-27.59537Z"/><path d="M397.80124,357.62711c-18.36725,0-30.70782,10.06439-30.70782,25.04315v1.03546h11.46487v-1.03546c0-9.10272,6.90643-14.32352,18.94565-14.32352,11.97855,0,18.05176,5.92355,18.05176,17.60483v1.43082l-22.9075,1.8606c-17.49561,1.39444-27.94122,10.36572-27.94122,23.99756,0,13.58331,10.00473,22.35944,25.49008,22.35944,11.26263,0,20.67883-4.51495,25.84805-12.23035l1.10422,10.44055h10.61749v-47.70996c0-18.09525-10.92288-28.47308-29.96561-28.47308l.00003-.00003ZM415.55572,397.21015v2.75854c0,15.54907-8.80341,25.20895-22.97223,25.20895-9.76608,0-15.36807-4.45935-15.36807-12.23541,0-8.23209,6.27341-13.13535,18.13065-14.17789l20.20966-1.5542Z"/><rect x="444.5061" y="323.03126" width="12.36078" height="110.77893"/><rect x="474.13196" y="323.03126" width="12.36078" height="110.77893"/></svg>