<?xml version="1.0" encoding="UTF-8"?>
<svg id="a" xmlns="http://www.w3.org/2000/svg" version="1.1" viewBox="0 0 497.3 444.7">
  <!-- Generator: Adobe Illustrator 29.7.1, SVG Export Plug-In . SVG Version: 2.1.1 Build 8)  -->
  <polygon points="7.3 436.7 20.1 436.7 20.1 389.7 63.8 389.7 63.8 377.9 20.1 377.9 20.1 339.7 72.3 339.7 72.3 327.8 7.3 327.8 7.3 436.7"/>
  <path d="M129.3,401.8c0,16.4-7.5,25.4-21,25.4s-18.1-7.3-18.1-22.2v-42.6h-12.5v45.9c0,18.9,10.2,30.3,27.3,30.3s19.7-4.5,24.7-11.8l1.1,10h10.9v-74.2h-12.4v39.4h0Z"/>
  <polygon points="152.2 373.1 192.9 373.1 152.4 426.8 152.2 427.1 152.2 436.7 208.7 436.7 208.7 426 167.8 426 208.7 372.2 208.7 362.4 152.2 362.4 152.2 373.1"/>
  <polygon points="216.9 373.1 257.6 373.1 217.1 426.8 216.9 427.1 216.9 436.7 273.4 436.7 273.4 426 232.5 426 273.4 372.2 273.4 362.4 216.9 362.4 216.9 373.1"/>
  <path d="M322.2,360.5c-11.5,0-20.6,4.6-26.1,13v-47.6h-12.4v110.8h10.9l.9-12.1c5.4,9,14.6,13.9,26.4,13.9,20.7,0,34.6-15.6,34.6-38.8s-13.8-39.2-34.3-39.2h0ZM320.3,371.8c14.4,0,23.7,10.8,23.7,27.6s-9.3,27.6-23.7,27.6-24-10.8-24-27.6,9.4-27.6,24-27.6Z"/>
  <path d="M398.4,360.5c-18.4,0-30.7,10.1-30.7,25v1h11.5v-1c0-9.1,6.9-14.3,18.9-14.3s18.1,5.9,18.1,17.6v1.4l-22.9,1.9c-17.5,1.4-27.9,10.4-27.9,24s10,22.4,25.5,22.4,20.7-4.5,25.8-12.2l1.1,10.4h10.6v-47.7c0-18.1-10.9-28.5-30-28.5h0ZM416.1,400.1v2.8c0,15.5-8.8,25.2-23,25.2s-15.4-4.5-15.4-12.2,6.3-13.1,18.1-14.2l20.2-1.6Z"/>
  <rect x="445.1" y="325.9" width="12.4" height="110.8"/>
  <rect x="474.7" y="325.9" width="12.4" height="110.8"/>
  <path d="M254.8,6.6C175.9,2.6,108.4,63.2,104.3,142c-4.2,78.8,56.5,146.4,135.3,150.6,2.6.1,5.1.2,7.7.2,75.5,0,138.8-59.3,142.9-135.5,4.2-78.8-56.5-146.4-135.3-150.6h0ZM374.9,156.4c-3.7,70.4-64.2,124.7-134.5,121-70.4-3.8-124.7-64.1-121-134.5,3.6-68.1,60.2-121.1,127.7-121.1s4.6,0,6.9.2c70.4,3.8,124.7,64.1,121,134.5h0Z"/>
  <path d="M324.3,119.3c0,33.1-26.9,60-60,60s-7.6,3.4-7.6,7.6,3.4,7.6,7.6,7.6c41.5,0,75.2-33.8,75.2-75.2s-3.3-7.6-7.6-7.6-7.6,3.4-7.6,7.6Z"/>
  <path d="M315.7,201.8c-13.9,8-30.1,10.2-45.6,6-15.5-4.1-28.4-14.1-36.5-28-2.1-3.6-6.8-4.9-10.4-2.8-3.6,2.1-4.9,6.8-2.8,10.4,10.1,17.4,26.3,29.9,45.7,35.1,6.5,1.7,13.1,2.6,19.6,2.6,13,0,25.9-3.4,37.5-10.1,3.6-2.1,4.9-6.8,2.8-10.4-2.1-3.6-6.8-4.9-10.4-2.8Z"/>
  <path d="M240,235.6c-28.7-16.6-38.5-53.3-22-82,2.1-3.6.9-8.3-2.8-10.4-3.7-2.1-8.3-.9-10.4,2.8-20.7,35.9-8.4,82,27.5,102.8,1.2.7,2.5,1,3.8,1,2.6,0,5.2-1.4,6.6-3.8,2.1-3.6.9-8.3-2.8-10.4h0Z"/>
  <path d="M240.5,119.3c0-4.2-3.4-7.6-7.6-7.6-41.5,0-75.2,33.8-75.2,75.2s3.4,7.6,7.6,7.6,7.6-3.4,7.6-7.6c0-33.1,26.9-60,60-60s7.6-3.4,7.6-7.6Z"/>
  <path d="M181.4,104.5c28.7-16.5,65.5-6.7,82,22,1.4,2.4,4,3.8,6.6,3.8s2.6-.3,3.8-1c3.6-2.1,4.9-6.8,2.8-10.4-20.7-35.9-66.9-48.3-102.8-27.5-3.6,2.1-4.9,6.7-2.8,10.4,2.1,3.6,6.8,4.9,10.4,2.8h0Z"/>
  <path d="M257.2,70.6c13.9,8,23.8,21,28,36.5,4.2,15.5,2,31.7-6,45.6-2.1,3.6-.9,8.3,2.8,10.4,3.5,1.7,8.7,0,10.4-2.8,10-17.4,12.7-37.7,7.5-57.1s-17.7-35.6-35.1-45.7c-3.6-2.1-8.3-.9-10.4,2.8-2.1,3.6-.9,8.3,2.8,10.4h0Z"/>
</svg>