<?xml version="1.0" encoding="UTF-8"?><svg id="a" xmlns="http://www.w3.org/2000/svg" viewBox="0 0 727.2 216"><path d="M114.00517,3.30934C56.24849.36964,6.8221,44.70204,3.74991,102.42314c-3.07027,57.7211,41.39071,107.18109,99.11182,110.25533,1.88926.0989,3.76265.15034,5.63208.15034,55.27207,0,101.65195-43.43031,104.62325-99.2642C216.18924,55.8435,171.72826,6.38352,114.00517,3.30934ZM201.99138,112.97112c-2.7458,51.58856-47.01486,91.31565-98.53619,88.58169-51.58658-2.74976-91.32352-46.95159-88.57971-98.53619C17.53231,53.11349,58.97842,14.3004,108.37904,14.3004c1.66772,0,3.3492.04357,5.03265.13454,51.58862,2.74976,91.32551,46.95159,88.57971,98.53619h-.00002Z"/><path d="M121.41743,91.9831l9.73244-5.4133c-.0056-.01025-.0079-.02132-.01363-.03158-14.77193-26.5543-48.3914-36.14184-74.94765-21.37192-.00031.00018-.00063.00049-.00094.00067l5.41433,9.73425c.00075-.00042.00156-.00072.00231-.00114,21.1901-11.77328,48.01297-4.13447,59.79421,17.05377.00572.01032.01315.01899.01893.02925Z"/><path d="M101.05446,88.7472l.17816-11.13519c-.01168-.00028-.02242-.00382-.03416-.00399-30.38267-.48428-55.49545,23.83726-55.98245,54.22061,0,.00036.00011.00079.00011.00115l11.13727.17818c0-.00086.00016-.00171.00017-.00257.39909-24.23781,20.42592-43.64769,44.66611-43.25642.0118.0002.02302-.00189.03479-.00177Z"/><path d="M88.0706,104.7641l-9.55428-5.72189c-.00608.00998-.01452.0175-.02054.02759-15.61074,26.07002-7.10405,59.9791,18.9652,75.59253.00031.00018.00073.0003.00105.00048l5.72295-9.55607c-.00074-.00044-.0014-.00099-.00214-.00143-20.79101-12.46453-27.58705-39.51321-15.12811-60.31019.00607-.01011.00987-.02088.01586-.03102Z"/><path d="M95.44971,124.0169l-9.73244,5.4133c.0056.01025.0079.02132.01363.03158,14.77193,26.5543,48.3914,36.14184,74.94765,21.37192.00031-.00018.00063-.00049.00094-.00067l-5.41433-9.73425c-.00075.00042-.00156.00072-.00231.00114-21.1901,11.77328-48.01297,4.13447-59.79421-17.05377-.00572-.01032-.01315-.01899-.01893-.02925Z"/><path d="M115.81268,127.2528l-.17816,11.13519c.01168.00028.02242.00382.03416.00399,30.38267.48428,55.49545-23.83726,55.98245-54.22061,0-.00036-.00011-.00079-.00011-.00115l-11.13727-.17818c0,.00086-.00016.00171-.00017.00257-.39909,24.23781-20.42592,43.64769-44.66611,43.25642-.0118-.0002-.02302.00189-.03479.00177Z"/><path d="M128.79654,111.2359l9.55428,5.72189c.00608-.00998.01452-.0175.02054-.02759,15.61074-26.07002,7.10405-59.9791-18.9652-75.59253-.00031-.00018-.00073-.0003-.00105-.00048l-5.72295,9.55607c.00074.00044.0014.00099.00214.00143,20.79101,12.46453,27.58705,39.51321,15.12811,60.31019-.00607.01011-.00987.02088-.01586.03102Z"/><polygon points="261.49857 160.4144 273.83426 160.4144 273.83426 115.17288 315.91538 115.17288 315.91538 103.84329 273.83426 103.84329 273.83426 67.0593 324.10215 67.0593 324.10215 55.5856 261.49857 55.5856 261.49857 160.4144"/><path d="M378.99027,126.81516c0,15.75018-7.19531,24.42395-20.25946,24.42395-11.69873,0-17.38641-7.0025-17.38641-21.40875v-41.06726h-12.04736v44.22766c0,18.25122,9.82294,29.14746,26.27435,29.14746,10.02362,0,19.00116-4.37677,23.75586-11.36761l1.05768,9.6438h10.50861v-71.50812h-11.90326v37.90887Z"/><polygon points="401.0145 99.2308 440.22446 99.2308 401.21512 150.91672 401.0145 151.18355 401.0145 160.4144 455.43125 160.4144 455.43125 150.08986 416.08689 150.08986 455.43125 98.2822 455.43125 88.90628 401.0145 88.90628 401.0145 99.2308"/><polygon points="463.33951 99.2308 502.54947 99.2308 463.54013 150.91672 463.33951 151.18355 463.33951 160.4144 517.75626 160.4144 517.75626 150.08986 478.41184 150.08986 517.75626 98.2822 517.75626 88.90628 463.33951 88.90628 463.33951 99.2308"/><path d="M564.8375,87.03928c-11.06372,0-19.85242,4.42352-25.14075,12.54895v-45.86963h-11.90521v106.6958h10.54364l.82391-11.64325c5.20074,8.65234,14.08875,13.36707,25.39203,13.36707,19.9245,0,33.31195-15.00323,33.31195-37.33423,0-22.58813-13.27258-37.76471-33.02557-37.76471ZM562.97147,97.93839c13.8764,0,22.84424,10.43268,22.84424,26.57831s-8.96783,26.57825-22.84424,26.57825c-14.05176,0-23.13062-10.43262-23.13062-26.57825s9.07886-26.57831,23.13062-26.57831Z"/><path d="M638.17752,87.03928c-17.69031,0-29.57599,9.69342-29.57599,24.12012v.99725h11.0423v-.99725c0-8.76727,6.65186-13.79559,18.24738-13.79559,11.53705,0,17.38641,5.7052,17.38641,16.95593v1.37811l-22.06323,1.79199c-16.85071,1.34302-26.91132,9.98364-26.91132,23.11304,0,13.0827,9.63599,21.53534,24.55054,21.53534,10.84753,0,19.91669-4.34857,24.89539-11.77954l1.06348,10.05573h10.2262v-45.95148c0-17.42828-10.52032-27.42365-28.86115-27.42365ZM633.15207,152.10001c-9.40613,0-14.80164-4.29498-14.80164-11.78442,0-7.92865,6.04224-12.65118,17.4624-13.65533l19.46478-1.49689v2.65686c0,14.97595-8.47894,24.27979-22.12555,24.27979Z"/><rect x="683.16092" y="53.7186" width="11.90515" height="106.6958"/><rect x="711.6948" y="53.7186" width="11.90521" height="106.6958"/></svg>