<?xml version="1.0" encoding="UTF-8"?><svg id="a" xmlns="http://www.w3.org/2000/svg" viewBox="0 0 436.60131 113.0719"><path d="M149.03145,30.73448l-19.30469,52.55664h6.32129l5.04053-13.68115h23.06445l5.04053,13.68115h6.46826l-19.5249-52.55664h-7.10547ZM152.56173,38.16954c.05713.16748.11328.3374.1665.51123l9.39941,25.39258h-19.0874l9.32471-25.38037c.06641-.1665.13281-.34326.19678-.52344Z"/><path d="M198.35469,46.50401c-5.70947,0-10.19141,2.36523-12.80371,6.70459l-.41211-5.76855h-5.28564v51.04443h5.96826v-20.50098c2.63965,3.99658,7.02002,6.17188,12.5332,6.17188,10.10205,0,16.62939-7.43164,16.62939-18.93359,0-11.1958-6.68262-18.71777-16.62939-18.71777ZM197.49044,52.04063c6.95752,0,11.45312,5.23047,11.45312,13.3252s-4.49561,13.3252-11.45312,13.3252c-7.04492,0-11.59668-5.23047-11.59668-13.3252s4.55176-13.3252,11.59668-13.3252Z"/><path d="M239.72579,46.50401c-5.70947,0-10.19141,2.36523-12.80371,6.70459l-.41211-5.76855h-5.28564v51.04443h5.96826v-20.50098c2.63965,3.99658,7.02002,6.17188,12.5332,6.17188,10.10156,0,16.62891-7.43164,16.62891-18.93359,0-11.1958-6.68262-18.71777-16.62891-18.71777ZM238.86153,52.04063c6.95703,0,11.45312,5.23047,11.45312,13.3252s-4.49609,13.3252-11.45312,13.3252c-7.04492,0-11.59668-5.23047-11.59668-13.3252s4.55176-13.3252,11.59668-13.3252Z"/><polygon points="270.70235 36.42295 264.80587 36.42295 264.80587 47.44004 257.82051 47.44004 257.82051 52.61631 264.80587 52.61631 264.80587 83.29112 270.70235 83.29112 270.70235 52.61631 277.68673 52.61631 277.68673 47.44004 270.70235 47.44004 270.70235 36.42295"/><path d="M295.86934,46.50401c-8.87012,0-14.8291,4.85986-14.8291,12.09277v.5h5.53613v-.5c0-4.39551,3.33496-6.9165,9.14941-6.9165,5.78418,0,8.7168,2.86035,8.7168,8.50098v.69092l-11.06152.89844c-8.44922.67334-13.49316,5.00537-13.49316,11.58789,0,6.55908,4.83203,10.79688,12.30957,10.79688,5.43848,0,9.98535-2.18018,12.48047-5.90576l.53418,5.0415h5.12695v-23.03809c0-8.73779-5.27441-13.74902-14.46973-13.74902ZM304.44259,65.61778v1.33203c0,7.5083-4.25098,12.17285-11.09375,12.17285-4.71582,0-7.41992-2.15332-7.41992-5.9082,0-3.9751,3.0293-6.34277,8.75488-6.84619l9.75879-.75049Z"/><rect x="318.16329" y="47.44004" width="5.96875" height="35.85107"/><path d="M321.11153,30.44639c-2.26172,0-4.17285,1.94385-4.17285,4.24463s1.87207,4.17236,4.17285,4.17236,4.24414-1.91064,4.24414-4.17236c0-2.30078-1.94336-4.24463-4.24414-4.24463Z"/><path d="M349.78926,46.50401c-4.80176,0-9.12891,2.25049-11.63086,5.96143l-.59766-5.02539h-5.26465v35.85107h5.96875v-18.71777c0-7.84766,3.98535-12.53271,10.66016-12.53271,6.09473,0,8.93359,3.3418,8.93359,10.5166v20.73389h5.96777v-21.81396c0-9.79541-4.85352-14.97314-14.03711-14.97314Z"/><path d="M397.4338,72.21495c-1.23145,4.37793-4.74902,6.69189-10.1748,6.69189-7.00684,0-11.28027-4.5083-11.78613-12.39307h27.69531v-2.94824c0-10.20508-6.56738-17.06152-16.3418-17.06152-10.12988,0-17.20508,7.75635-17.20508,18.86182,0,11.23877,7.05859,18.78955,17.56543,18.78955,8.37598,0,14.0459-4.14844,15.96582-11.68164l.15918-.62354h-5.77539l-.10254.36475ZM386.82637,51.75254c6.1377,0,10.16016,3.97021,10.36523,10.16064h-21.52539c1.00684-6.375,5.14453-10.16064,11.16016-10.16064Z"/><path d="M428.35567,47.0211c-1.31641-.30957-2.29297-.37305-3.35449-.37305-4.19336,0-7.69727,1.79346-9.56348,4.78809l-.26562-3.99609h-5.64844v35.85107h5.96875v-20.37354c0-6.34521,3.93066-10.44531,10.0127-10.44531h3.23633v-5.36035l-.38574-.09082Z"/><path d="M57.74271,10.77461c25.50942,0,46.26287,20.75334,46.26287,46.26287s-20.75346,46.26286-46.26287,46.26286S11.47984,82.547,11.47984,57.03747,32.2333,10.77461,57.74271,10.77461M57.74271,5.27307C29.15406,5.27307,5.97831,28.44895,5.97831,57.03747s23.17575,51.7644,51.7644,51.7644,51.7644-23.17588,51.7644-51.7644S86.33147,5.27307,57.74271,5.27307h0Z"/><path d="M55.01258,35.18617v-5.55085c-9.57457.94705-17.70036,6.82808-21.84946,15.04813l5.28919,1.71874c3.33967-6.03293,9.42621-10.32856,16.56027-11.21602Z"/><path d="M35.7035,57.03796c0-1.90483.26838-3.74421.72493-5.50886l-5.23632-1.70115c-.62628,2.30239-.99015,4.71224-.99015,7.21001,0,6.25223,2.11827,12.0053,5.64208,16.63304l3.0465-5.27636c-2.00886-3.32221-3.18704-7.19975-3.18704-11.35667Z"/><path d="M76.92017,46.21609l5.30946-1.72509c-4.17243-8.1087-12.23265-13.90132-21.71552-14.85324v5.55477c7.0409.8894,13.051,5.102,16.40606,11.02356Z"/><path d="M84.24056,49.62233l-5.23644,1.70115c.49159,1.82619.77804,3.73542.77804,5.71449,0,4.19745-1.20102,8.11115-3.24638,11.45435l3.04052,5.26612c3.56374-4.64241,5.70739-10.42917,5.70739-16.72047,0-2.57201-.3806-5.05219-1.04314-7.41563Z"/><path d="M82.446,89.67008l-24.74322-42.85371-15.11589,26.18111c-.00025-.00049-.00061-.00098-.00086-.00098l-2.8106,4.86805c.00024.00049.00073.00049.00098.00049l-6.79941,11.77683h6.35314l4.97426-8.6158c7.81334,4.67009,18.99043,4.6852,26.81813.03616l4.95389,8.57965,6.36958.02821ZM57.74283,79.0773c-3.88511,0-7.52199-1.03351-10.69096-2.80987l10.65091-18.44801,10.67045,18.48074c-3.15456,1.75586-6.7697,2.77714-10.6304,2.77714Z"/></svg>