<?xml version="1.0" encoding="UTF-8"?><svg id="a" xmlns="http://www.w3.org/2000/svg" viewBox="0 0 223.2 223.2"><path d="M111.6,15.07827c53.22223,0,96.52175,43.29927,96.52175,96.52173s-43.29952,96.52173-96.52175,96.52173S15.07825,164.82247,15.07825,111.6,58.37777,15.07827,111.6,15.07827M111.6,3.6C51.95334,3.6,3.6,51.95359,3.6,111.6s48.35334,108,108,108,108-48.35359,108-108S171.2469,3.6,111.6,3.6h0Z"/><path d="M105.90393,66.00996v-11.58117c-19.97614,1.9759-36.9296,14.24595-45.58619,31.39606l11.03524,3.58594c6.96782-12.58696,19.66662-21.54925,34.55095-23.40084Z"/><path d="M65.61793,111.60102c0-3.9742.55994-7.81183,1.51247-11.49356l-10.92493-3.54924c-1.30665,4.80365-2.06582,9.8315-2.06582,15.04279,0,13.0445,4.4195,25.04757,11.77149,34.70277l6.35615-11.00848c-4.19124-6.93138-6.64937-15.02138-6.64937-23.69429Z"/><path d="M151.61138,89.02253l11.07753-3.59918c-8.70525-16.9178-25.52191-29.00337-45.30673-30.98945v11.58934c14.68997,1.85563,27.22929,10.64469,34.2292,22.99929Z"/><path d="M166.88448,96.12922l-10.92518,3.54924c1.02565,3.81013,1.62329,7.79348,1.62329,11.92256,0,8.75746-2.50577,16.92291-6.77317,23.89809l6.34368,10.98711c7.43529-9.68581,11.90777-21.75917,11.90777-34.8852,0-5.36617-.79407-10.54077-2.17638-15.4718Z"/><path d="M163.14034,179.68389l-51.62365-89.40895-31.53743,54.62363c-.00051-.00102-.00128-.00205-.00179-.00205l-5.86396,10.15659c.00051.00103.00153.00103.00204.00103l-14.18613,24.57089h13.25503l10.37818-17.9758c16.30157,9.74357,39.62117,9.77508,55.9527.07543l10.33567,17.90037,13.28933.05886ZM111.60026,157.58337c-8.1058,0-15.69369-2.15629-22.30537-5.86245l22.2218-38.48948,22.26258,38.55776c-6.58159,3.66337-14.12415,5.79416-22.17901,5.79416Z"/></svg>