<?xml version="1.0" encoding="UTF-8"?><svg id="a" xmlns="http://www.w3.org/2000/svg" viewBox="0 0 306.69872 213.52388"><path d="M21.77438,141.31299L2.46969,193.86963h6.32129l5.04053-13.68115h23.06445l5.04053,13.68115h6.46826l-19.5249-52.55664h-7.10547ZM25.30465,148.74805c.05713.16748.11328.3374.1665.51123l9.39941,25.39258H15.78317l9.32471-25.38037c.06641-.1665.13281-.34326.19678-.52344Z"/><path d="M71.09762,157.08252c-5.70947,0-10.19141,2.36523-12.80371,6.70459l-.41211-5.76855h-5.28564v51.04443h5.96826v-20.50098c2.63965,3.99658,7.02002,6.17188,12.5332,6.17188,10.10205,0,16.62939-7.43164,16.62939-18.93359,0-11.1958-6.68262-18.71777-16.62939-18.71777ZM70.23336,162.61914c6.95752,0,11.45312,5.23047,11.45312,13.3252s-4.49561,13.3252-11.45312,13.3252c-7.04492,0-11.59668-5.23047-11.59668-13.3252s4.55176-13.3252,11.59668-13.3252Z"/><path d="M112.46872,157.08252c-5.70947,0-10.19141,2.36523-12.80371,6.70459l-.41211-5.76855h-5.28564v51.04443h5.96826v-20.50098c2.63965,3.99658,7.02002,6.17188,12.5332,6.17188,10.10156,0,16.62891-7.43164,16.62891-18.93359,0-11.1958-6.68262-18.71777-16.62891-18.71777ZM111.60446,162.61914c6.95703,0,11.45312,5.23047,11.45312,13.3252s-4.49609,13.3252-11.45312,13.3252c-7.04492,0-11.59668-5.23047-11.59668-13.3252s4.55176-13.3252,11.59668-13.3252Z"/><polygon points="143.44528 147.00146 137.54879 147.00146 137.54879 158.01855 130.56344 158.01855 130.56344 163.19482 137.54879 163.19482 137.54879 193.86963 143.44528 193.86963 143.44528 163.19482 150.42965 163.19482 150.42965 158.01855 143.44528 158.01855 143.44528 147.00146"/><path d="M168.61227,157.08252c-8.87012,0-14.8291,4.85986-14.8291,12.09277v.5h5.53613v-.5c0-4.39551,3.33496-6.9165,9.14941-6.9165,5.78418,0,8.7168,2.86035,8.7168,8.50098v.69092l-11.06152.89844c-8.44922.67334-13.49316,5.00537-13.49316,11.58789,0,6.55908,4.83203,10.79688,12.30957,10.79688,5.43848,0,9.98535-2.18018,12.48047-5.90576l.53418,5.0415h5.12695v-23.03809c0-8.73779-5.27441-13.74902-14.46973-13.74902ZM177.18551,176.19629v1.33203c0,7.5083-4.25098,12.17285-11.09375,12.17285-4.71582,0-7.41992-2.15332-7.41992-5.9082,0-3.9751,3.0293-6.34277,8.75488-6.84619l9.75879-.75049Z"/><rect x="190.90622" y="158.01855" width="5.96875" height="35.85107"/><path d="M193.85446,141.0249c-2.26172,0-4.17285,1.94385-4.17285,4.24463s1.87207,4.17236,4.17285,4.17236,4.24414-1.91064,4.24414-4.17236c0-2.30078-1.94336-4.24463-4.24414-4.24463Z"/><path d="M222.53219,157.08252c-4.80176,0-9.12891,2.25049-11.63086,5.96143l-.59766-5.02539h-5.26465v35.85107h5.96875v-18.71777c0-7.84766,3.98535-12.53271,10.66016-12.53271,6.09473,0,8.93359,3.3418,8.93359,10.5166v20.73389h5.96777v-21.81396c0-9.79541-4.85352-14.97314-14.03711-14.97314Z"/><path d="M270.17672,182.79346c-1.23145,4.37793-4.74902,6.69189-10.1748,6.69189-7.00684,0-11.28027-4.5083-11.78613-12.39307h27.69531v-2.94824c0-10.20508-6.56738-17.06152-16.3418-17.06152-10.12988,0-17.20508,7.75635-17.20508,18.86182,0,11.23877,7.05859,18.78955,17.56543,18.78955,8.37598,0,14.0459-4.14844,15.96582-11.68164l.15918-.62354h-5.77539l-.10254.36475ZM259.5693,162.33105c6.1377,0,10.16016,3.97021,10.36523,10.16064h-21.52539c1.00684-6.375,5.14453-10.16064,11.16016-10.16064Z"/><path d="M301.0986,157.59961c-1.31641-.30957-2.29297-.37305-3.35449-.37305-4.19336,0-7.69727,1.79346-9.56348,4.78809l-.26562-3.99609h-5.64844v35.85107h5.96875v-20.37354c0-6.34521,3.93066-10.44531,10.0127-10.44531h3.23633v-5.36035l-.38574-.09082Z"/><path d="M151.97702,8.8612c29.98119,0,54.37272,24.39138,54.37272,54.37271s-24.39152,54.3727-54.37272,54.3727-54.37272-24.39138-54.37272-54.3727,24.39152-54.37271,54.37272-54.37271M151.97702,2.39525c-33.60021,0-60.83866,27.23859-60.83866,60.83866s27.23844,60.83866,60.83866,60.83866,60.83866-27.23859,60.83866-60.83866S185.57736,2.39525,151.97702,2.39525h0Z"/><path d="M148.7683,37.55208v-6.52391c-11.25298,1.11306-20.80321,8.02504-25.67965,17.68606l6.21638,2.02004c3.92512-7.0905,11.07862-12.13914,19.46327-13.18218Z"/><path d="M126.07435,63.23448c0-2.23875.31543-4.40057.85201-6.47456l-6.15424-1.99936c-.73607,2.706-1.16372,5.53829-1.16372,8.47392,0,7.34824,2.4896,14.10982,6.63113,19.5488l3.58055-6.20131c-2.36101-3.90459-3.74573-8.46185-3.74573-13.34749Z"/><path d="M174.51626,50.51555l6.2402-2.02749c-4.90385-9.53015-14.37703-16.33821-25.52223-17.45701v6.52852c8.27516,1.04532,15.33883,5.99638,19.28203,12.95598Z"/><path d="M183.11992,54.51889l-6.15438,1.99936c.57777,2.14633.91444,4.39023.91444,6.71623,0,4.93326-1.41155,9.53303-3.81547,13.46229l3.57352,6.18927c4.18845-5.45622,6.70789-12.2574,6.70789-19.65156,0-3.02288-.44732-5.93783-1.226-8.71559Z"/><path d="M181.01076,101.58699l-29.08068-50.36593-17.7657,30.77063c-.00029-.00057-.00072-.00115-.00101-.00115l-3.30329,5.72142c.00029.00058.00086.00058.00115.00058l-7.99134,13.8413h7.46684l5.84625-10.12615c9.18302,5.48876,22.31943,5.50651,31.51933.04249l5.8223,10.08365,7.48616.03315ZM151.97716,89.1373c-4.56617,0-8.84058-1.21468-12.56508-3.30244l12.518-21.68193,12.54097,21.72039c-3.70755,2.06366-7.95643,3.26397-12.4939,3.26397Z"/></svg>