<?xml version="1.0" encoding="UTF-8"?><svg id="a" xmlns="http://www.w3.org/2000/svg" viewBox="0 0 720 720"><path d="M378.75037,7.68096C184.3797-2.212,18.04352,146.98127,7.70451,341.23211c-10.33235,194.25084,139.29365,360.70019,333.54449,371.04586,6.35786.33287,12.66245.50597,18.95374.50597,186.00892,0,342.09264-146.15748,352.09212-334.05711C722.63386,184.47598,573.00786,18.02662,378.75037,7.68096ZM674.85341,376.72959c-9.24053,173.61277-158.22076,307.30751-331.60717,298.10693-173.60611-9.25384-307.33414-158.00772-298.10027-331.60717C54.08691,175.28871,193.56697,44.66971,359.8166,44.66971c5.61222,0,11.27105.14646,16.93653.45271,173.61277,9.25384,307.3408,158.00772,298.10027,331.60717Z"/><polygon points="562.5698 301.25854 537.46459 329.11327 550.9484 341.26976 378.75117 341.26976 378.75117 169.06838 390.90766 182.55635 418.75574 157.44448 360.00382 92.26813 301.24524 157.44448 329.09332 182.55635 341.25646 169.06505 341.25646 341.26976 169.05258 341.26976 182.53639 329.11327 157.43118 301.25854 92.25483 360.01712 157.43118 418.7757 182.53639 390.92096 169.05258 378.76448 341.25646 378.76448 341.25646 550.96919 329.09332 537.47789 301.24524 562.58976 360.00382 627.76611 418.75574 562.58976 390.90766 537.47789 378.75117 550.96586 378.75117 378.76448 550.9484 378.76448 537.46459 390.92096 562.5698 418.7757 627.74615 360.01712 562.5698 301.25854"/><polygon points="261.47368 263.03151 290.79305 263.03151 290.79305 225.5368 223.97897 225.5368 223.97897 292.35088 261.47368 292.35088 261.47368 263.03151"/><polygon points="263.02486 429.22788 225.53015 429.22788 225.53015 496.04197 292.34424 496.04197 292.34424 458.54726 263.02486 458.54726 263.02486 429.22788"/><polygon points="458.53396 457.00273 429.21458 457.00273 429.21458 494.49744 496.02867 494.49744 496.02867 427.68336 458.53396 427.68336 458.53396 457.00273"/><polygon points="456.98277 290.80635 494.47748 290.80635 494.47748 223.99227 427.6634 223.99227 427.6634 261.48698 456.98277 261.48698 456.98277 290.80635"/></svg>