<?xml version="1.0" encoding="UTF-8"?><svg id="a" xmlns="http://www.w3.org/2000/svg" viewBox="0 0 479.98477 111.91878"><path d="M57.21325,4.26556C28.69431,2.81402,4.28872,24.70433,2.77173,53.20568c-1.51601,28.50135,20.43779,52.92355,48.93914,54.44151.93285.04884,1.85789.07424,2.78098.07424,27.29206,0,50.19337-21.44488,51.66054-49.01436,1.51699-28.50135-20.43681-52.92355-48.93914-54.44151ZM100.65881,58.41403c-1.35581,25.47324-23.21486,45.08954-48.65489,43.73959-25.47227-1.35777-45.09344-23.1836-43.73861-48.65489C9.57717,28.85772,30.04231,9.69271,54.4352,9.69271c.82345,0,1.65374.02149,2.485.06642,25.47324,1.35777,45.09442,23.1836,43.73861,48.65489Z"/><polygon points="84.18406 47.34058 80.50051 51.42755 82.47892 53.21121 57.21337 53.21121 57.21337 27.94505 58.99702 29.92406 63.08301 26.23954 54.46267 16.67657 45.84135 26.23954 49.92734 29.92406 51.71197 27.94456 51.71197 53.21121 26.44545 53.21121 28.42385 51.42755 24.7403 47.34058 15.17733 55.9619 24.7403 64.58323 28.42385 60.49625 26.44545 58.7126 51.71197 58.7126 51.71197 83.97925 49.92734 81.99974 45.84135 85.68427 54.46267 95.24724 63.08301 85.68427 58.99702 81.99974 57.21337 83.97876 57.21337 58.7126 82.47892 58.7126 80.50051 60.49625 84.18406 64.58323 93.74703 55.9619 84.18406 47.34058"/><polygon points="40.00588 41.73174 44.30775 41.73174 44.30775 36.23035 34.50449 36.23035 34.50449 46.03361 40.00588 46.03361 40.00588 41.73174"/><polygon points="40.23348 66.11682 34.73209 66.11682 34.73209 75.92008 44.53535 75.92008 44.53535 70.41869 40.23348 70.41869 40.23348 66.11682"/><polygon points="68.91945 70.19207 64.61758 70.19207 64.61758 75.69346 74.42085 75.69346 74.42085 65.8902 68.91945 65.8902 68.91945 70.19207"/><polygon points="68.69186 45.80699 74.19325 45.80699 74.19325 36.00373 64.38999 36.00373 64.38999 41.50512 68.69186 41.50512 68.69186 45.80699"/><path d="M172.42924,65.7024c-2.18311,6.75977-8.45752,10.95898-16.37402,10.95898-10.98486,0-18.36572-8.48047-18.36572-21.10205,0-12.66455,7.38086-21.17383,18.36572-21.17383,7.83643,0,13.99854,4.44238,16.08154,11.59277l.10498.36035h6.53174l-.12256-.6001c-2.11572-10.36035-11.10938-17.32129-22.37939-17.32129-14.94287,0-24.98242,10.90771-24.98242,27.14209,0,16.19141,9.92383,27.07031,24.69434,27.07031,11.29248,0,20.51611-6.69287,22.95166-16.65479l.15088-.61865h-6.54492l-.11182.34619Z"/><rect x="185.7354" y="29.28101" width="6.18457" height="52.55664"/><path d="M224.43901,28.34498c-14.75146,0-25.0542,11.19092-25.0542,27.21436,0,15.98096,10.30273,27.14258,25.0542,27.14258,5.14209,0,9.7627-1.32715,13.74023-3.94531l5.52051,6.24609,4.2666-3.91846-5.4248-6.0752c4.48682-4.89453,6.95166-11.78027,6.95166-19.44971,0-16.02344-10.30273-27.21436-25.0542-27.21436ZM243.1646,55.55933c0,5.77979-1.68945,11.00586-4.76855,14.79053l-6.79736-7.58398-4.18408,3.92236,6.62695,7.48242c-2.78955,1.67822-6.09619,2.5625-9.60254,2.5625-11.15723,0-18.65381-8.50928-18.65381-21.17383s7.49658-21.17383,18.65381-21.17383c11.2002,0,18.72559,8.50928,18.72559,21.17383Z"/><path d="M308.08403,55.30054c4.7417-2.28955,7.14355-6.38721,7.14355-12.19824,0-8.52539-6.34473-13.82129-16.55762-13.82129h-19.36572v52.55664h20.4458c10.01465,0,16.48535-5.50977,16.48535-14.03711,0-6.12842-2.74121-10.32812-8.15137-12.5ZM299.24565,52.75513h-13.75684v-17.86572h13.10889c6.54639,0,10.30078,3.15088,10.30078,8.64502,0,5.85986-3.51855,9.2207-9.65283,9.2207ZM309.97856,67.15259c0,5.72266-3.72803,9.00488-10.22852,9.00488h-14.26123v-17.86572h14.26123c6.40479,0,10.22852,3.3125,10.22852,8.86084Z"/><path d="M338.57231,45.19459c-4.19385,0-7.69678,1.79346-9.56299,4.78809l-.26611-3.99609h-5.64844v35.85107h5.96875v-20.37354c0-6.34521,3.93018-10.44531,10.0127-10.44531h3.23633v-5.36035l-.38574-.09082c-1.31641-.30957-2.29297-.37305-3.35449-.37305Z"/><rect x="346.73149" y="45.98658" width="5.96875" height="35.85107"/><path d="M349.67973,28.99293c-2.26172,0-4.17285,1.94385-4.17285,4.24463s1.87207,4.17236,4.17285,4.17236,4.24414-1.91064,4.24414-4.17236c0-2.30078-1.94336-4.24463-4.24414-4.24463Z"/><path d="M387.84477,51.21705c-2.62402-3.99316-6.92871-6.1665-12.31641-6.1665-10.07617,0-16.8457,7.60889-16.8457,18.93359,0,11.1958,6.68262,18.71777,16.62891,18.71777,5.70898,0,10.19092-2.36426,12.80322-6.70264l.4126,5.83838h5.28613V28.34498h-5.96875v22.87207ZM387.77348,63.84009c0,8.09473-4.55225,13.3252-11.59766,13.3252-6.95752,0-11.45312-5.23047-11.45312-13.3252s4.49561-13.3252,11.45312-13.3252c7.04541,0,11.59766,5.23047,11.59766,13.3252Z"/><path d="M429.33257,51.64771c-2.52197-4.27051-6.90234-6.59717-12.52002-6.59717-9.91797,0-16.84473,7.3418-16.84473,17.85352s6.77881,17.85352,16.48535,17.85352c5.46729,0,9.98779-2.30273,12.67676-6.38574v6.38965c0,6.93652-4.57373,11.59717-11.38086,11.59717-6.05957,0-10.13232-3.10645-11.17383-8.52295l-.07812-.40576h-5.96973l.09424.58008c1.41211,8.69434,7.7876,13.88525,17.05518,13.88525,10.53955,0,17.3501-6.92334,17.3501-17.6377v-34.271h-5.28564l-.40869,5.66113ZM428.69829,62.83228c0,7.56982-4.52393,12.46094-11.52539,12.46094-6.61621,0-11.2373-5.12402-11.2373-12.46094,0-7.29443,4.65088-12.38916,11.30957-12.38916,6.95752,0,11.45312,4.86279,11.45312,12.38916Z"/><path d="M469.18217,70.39673l-.10254.36475c-1.23145,4.37793-4.74902,6.69189-10.1748,6.69189-7.00684,0-11.28027-4.5083-11.78613-12.39307h27.69531v-2.94824c0-10.20508-6.56738-17.06152-16.3418-17.06152-10.12988,0-17.20508,7.75635-17.20508,18.86182,0,11.23877,7.05859,18.78955,17.56543,18.78955,8.37598,0,14.0459-4.14844,15.96582-11.68164l.15918-.62354h-5.77539ZM447.31206,60.45972c1.00684-6.375,5.14453-10.16064,11.16016-10.16064,6.1377,0,10.16016,3.97021,10.36523,10.16064h-21.52539Z"/></svg>