<?xml version="1.0" encoding="UTF-8"?><svg id="a" xmlns="http://www.w3.org/2000/svg" viewBox="0 0 727.2 444.66989"><path d="M370.33034,6.50182c-69.76829-3.55102-129.47376,50.00109-133.18489,119.72636-3.70874,69.72528,49.9987,129.47137,119.72398,133.18489,2.28212.11948,4.54512.18161,6.80334.18161,66.76689,0,122.79229-52.46243,126.38155-119.90798,3.71113-69.72528-49.99631-129.47137-119.72398-133.18489ZM476.61491,138.96981c-3.31684,62.31736-56.79248,110.30636-119.02859,107.00386-62.31497-3.32162-110.31591-56.71601-107.00147-119.02859,3.2093-60.28137,53.27491-107.16635,112.94931-107.16635,2.01448,0,4.04568.05257,6.07928.1625,62.31736,3.32162,110.3183,56.71601,107.00147,119.02859Z"/><polygon points="436.31132 111.87989 427.29995 121.87819 432.13989 126.2417 370.33063 126.2417 370.33063 64.43095 374.69414 69.27238 384.69005 60.25861 363.60137 36.86392 342.5103 60.25861 352.50621 69.27238 356.87211 64.42975 356.87211 126.2417 295.06046 126.2417 299.90041 121.87819 290.88903 111.87989 267.49433 132.97096 290.88903 154.06203 299.90041 144.06372 295.06046 139.70022 356.87211 139.70022 356.87211 201.51216 352.50621 196.66953 342.5103 205.6833 363.60137 229.078 384.69005 205.6833 374.69414 196.66953 370.33063 201.51097 370.33063 139.70022 432.13989 139.70022 427.29995 144.06372 436.31132 154.06203 459.70602 132.97096 436.31132 111.87989"/><polygon points="328.23452 98.1585 338.75854 98.1585 338.75854 84.69998 314.77599 84.69998 314.77599 108.68253 328.23452 108.68253 328.23452 98.1585"/><polygon points="328.7913 157.81378 315.33278 157.81378 315.33278 181.79634 339.31533 181.79634 339.31533 168.33781 328.7913 168.33781 328.7913 157.81378"/><polygon points="398.96823 167.78341 388.4442 167.78341 388.4442 181.24194 412.42675 181.24194 412.42675 157.25939 398.96823 157.25939 398.96823 167.78341"/><polygon points="398.41144 108.12813 411.86996 108.12813 411.86996 84.14558 387.88741 84.14558 387.88741 97.6041 398.41144 97.6041 398.41144 108.12813"/><path d="M91.57871,371.33003c-4.54383,14.0695-17.60313,22.80958-34.08022,22.80958-22.86344,0-38.22566-17.6509-38.22566-43.92094,0-26.35947,15.36222-44.07033,38.22566-44.07033,16.31041,0,29.13597,9.24619,33.47146,24.12872l.2185.75002h13.59489l-.25509-1.24902c-4.40358-21.56361-23.1226-36.05182-46.57955-36.05182-31.10148,0-51.99738,22.70287-51.99738,56.49243,0,33.70013,20.65505,56.34303,51.39777,56.34303,23.5037,0,42.70139-13.93027,47.77064-34.66458l.31403-1.28764h-13.62233l-.23273.72055Z"/><rect x="119.27358" y="295.52406" width="12.87231" height="109.38923"/><path d="M199.82969,293.57583c-30.70309,0-52.14678,23.29232-52.14678,56.64284,0,33.26211,21.44369,56.49344,52.14678,56.49344,10.70253,0,20.31967-2.76227,28.59836-8.21161l11.49016,13.00036,8.88033-8.15571-11.29096-12.64466c9.33867-10.18728,14.4689-24.51898,14.4689-40.48182,0-33.35052-21.44369-56.64284-52.14678-56.64284ZM238.80435,350.21867c0,12.02981-3.51636,22.90714-9.92507,30.78439l-14.14775-15.78499-8.70858,8.16385,13.79307,15.5736c-5.80606,3.49298-12.68836,5.33348-19.98633,5.33348-23.22219,0-38.82527-17.71086-38.82527-44.07033s15.60308-44.07033,38.82527-44.07033c23.31162,0,38.97466,17.71086,38.97466,44.07033Z"/><path d="M373.92498,349.68004c9.86918-4.76538,14.8683-13.29407,14.8683-25.38892,0-17.7444-13.20565-28.76706-34.46234-28.76706h-40.30702v109.38923h42.55505c20.84408,0,34.31193-11.4678,34.31193-29.21626,0-12.75544-5.70544-21.49653-16.96592-26.01698ZM355.52915,344.38213h-28.63291v-37.18498h27.2843c13.62538,0,21.43962,6.55811,21.43962,17.99339,0,12.19648-7.32337,19.19159-20.09101,19.19159ZM377.86818,374.34841c0,11.9109-7.75936,18.74239-21.28921,18.74239h-29.68274v-37.18498h29.68274c13.33066,0,21.28921,6.8945,21.28921,18.44259Z"/><path d="M437.38203,328.64592c-8.7289,0-16.01976,3.73283-19.90401,9.96572l-.55388-8.3173h-11.75642v74.61895h12.42311v-42.40464c0-13.20667,8.18011-21.74044,20.84001-21.74044h6.73596v-11.15681l-.80287-.18903c-2.73991-.64433-4.77249-.77644-6.9819-.77644Z"/><rect x="454.36421" y="330.29434" width="12.42311" height="74.61895"/><path d="M460.50056,294.92445c-4.70745,0-8.6852,4.04584-8.6852,8.8346s3.89645,8.68418,8.6852,8.68418,8.83358-3.97674,8.83358-8.68418c0-4.78875-4.04483-8.8346-8.83358-8.8346Z"/><path d="M539.9357,341.18082c-5.46153-8.31121-14.42113-12.83471-25.63486-12.83471-20.97213,0-35.06195,15.83682-35.06195,39.4076,0,23.30248,13.90892,38.9584,34.61072,38.9584,11.88244,0,21.21096-4.92087,26.6481-13.95059l.85876,12.15176h11.00234v-111.33745h-12.42311v47.60498ZM539.78733,367.45391c0,16.84803-9.47486,27.73451-24.13888,27.73451-14.48109,0-23.83806-10.88648-23.83806-27.73451s9.35697-27.73451,23.83806-27.73451c14.66403,0,24.13888,10.88648,24.13888,27.73451Z"/><path d="M626.28669,342.07718c-5.24913-8.88846-14.36625-13.73107-26.05865-13.73107-20.64285,0-35.05992,15.28091-35.05992,37.15957s14.10913,37.15957,34.31193,37.15957c11.37938,0,20.78818-4.79282,26.38488-13.29102v13.29915c0,14.43739-9.51957,24.13787-23.68765,24.13787-12.61214,0-21.089-6.46563-23.25675-17.73932l-.16261-.84454h-12.42514l.19614,1.20735c2.93911,18.09603,16.20878,28.9002,35.49794,28.9002,21.93659,0,36.11178-14.40995,36.11178-36.71037v-71.33024h-11.00132l-.85063,11.78285ZM624.96653,365.35629c0,15.75552-9.41591,25.93568-23.98847,25.93568-13.77071,0-23.38886-10.66493-23.38886-25.93568,0-15.18233,9.68015-25.78629,23.53927-25.78629,14.48109,0,23.83806,10.12122,23.83806,25.78629Z"/><path d="M709.22802,381.10063l-.21342.75917c-2.56308,9.11204-9.88442,13.92823-21.17742,13.92823-14.58374,0-23.4783-9.38339-24.53117-25.79442h57.64388v-6.13635c0-21.24043-13.66908-35.51115-34.01314-35.51115-21.08392,0-35.80994,16.14374-35.80994,39.25821,0,23.39191,14.69147,39.1078,36.55996,39.1078,17.43341,0,29.23455-8.63439,33.2306-24.31369l.33131-1.2978h-12.02066ZM663.70846,360.41814c2.09559-13.26866,10.70762-21.14795,23.22829-21.14795,12.77475,0,21.14693,8.26344,21.57377,21.14795h-44.80206Z"/></svg>