<?xml version="1.0" encoding="UTF-8"?><svg id="a" xmlns="http://www.w3.org/2000/svg" viewBox="0 0 402.92078 217.59021"><path d="M200.42716,10.1502h-.00014c.98255,0,1.98073.02664,2.96675.07935,14.63249.77897,28.08582,7.20939,37.88174,18.1063,9.79607,10.89749,14.76194,24.95719,13.98311,39.58969-1.55027,29.12715-25.58949,51.94319-54.7275,51.94319-.98414,0-1.9829-.02606-2.96863-.07877-30.20613-1.60775-53.47246-27.48986-51.86485-57.69599,1.55027-29.12599,25.59036-51.94203,54.72953-51.94376M200.42513,3.62711c-32.40317.00116-59.49935,25.3794-61.2419,58.11993-1.80177,33.85252,24.18025,62.75554,58.03248,64.5573,1.11155.05907,2.21529.08803,3.31541.08803,32.40317,0,59.49935-25.3794,61.2419-58.11993,1.80191-33.85252-24.1801-62.75554-58.03248-64.5573-1.11155-.05907-2.21529-.08861-3.31541-.08803h0Z"/><path d="M200.53705,101.56782c-5.36998,0-10.80946-1.16295-15.94893-3.60933l-16.3416,2.88422c-1.03438.1807-2.08961-.14595-2.84136-.87569-.75175-.73206-1.1062-1.7815-.95098-2.81935l2.50429-16.79798c-4.98542-10.45269-4.82788-22.73322.47375-33.07008,9.38356-18.28758,31.89206-25.53172,50.1808-16.15163,8.86,4.54525,15.41842,12.26662,18.46943,21.74401s2.22861,19.57563-2.31548,28.43679c-6.59664,12.85737-19.68451,20.25672-33.22992,20.25904ZM185.07462,91.29814c.51545,0,1.02511.12278,1.48844.35908,7.30901,3.74833,15.63966,4.42247,23.45948,1.91123,7.81983-2.51819,14.1906-7.92987,17.93892-15.23888,7.7399-15.08598,1.76181-33.6585-13.32533-41.39609-15.09177-7.74222-33.65966-1.76065-41.39841,13.32533-4.50935,8.78934-4.50935,19.28373,0,28.07076.31043.60696.42395,1.29732.32317,1.97146l-1.98652,13.32996,12.93382-2.28421c.18765-.03243.37761-.04865.56642-.04865Z"/><path d="M216.49337,61.90284l4.31779-1.79134-2.49966-6.02559-4.34269,1.80177c-1.18453-1.75254-2.68571-3.19755-4.38294-4.34197l1.81509-4.36803-6.02443-2.50197-1.81234,4.36166c-2.01432-.39267-4.10639-.44943-6.18877-.04575l-.12568-.30348-.00174.00058-1.66625-4.013-6.02443,2.49966,1.79033,4.31475c-1.7579,1.18728-3.22766,2.68846-4.37426,4.3912l-4.32778-1.7954-2.49966,6.02559,4.33053,1.79656c-.39383,2.01664-.41613,4.11957-.01187,6.20397l-4.31866,1.79192,2.49966,6.02559,4.31446-1.79019c1.16701,1.73517,2.65169,3.22013,4.38685,4.38714l-1.78961,4.31359,6.02559,2.49966,1.80611-4.35355c2.04907.39904,4.14114.43727,6.19094.03996l1.78497,4.31591,6.0279-2.49271-1.78715-4.3217c1.73661-1.16701,3.22231-2.65256,4.38989-4.38888l4.31591,1.79076,2.49966-6.02559-4.31822-1.79134c.40281-2.05428.40295-4.15548.00043-6.20976ZM196.75513,74.05769l-.04503-.01853c-2.40424-1.00369-4.27754-2.87843-5.27398-5.28658-2.06413-4.98542.31275-10.72142,5.29816-12.78787l.00319-.00116c2.4151-.99905,5.07171-.99905,7.48652.00116,2.4151,1.00079,4.29621,2.8819,5.29585,5.29816,1.00079,2.41394,1.00079,5.07576,0,7.48971-1.00064,2.41626-2.88176,4.29506-5.29628,5.29585h-.00188c-2.40873.995-5.05868.99384-7.46654.00927Z"/><path d="M46.39122,180.35511c-2.18408,6.7627-8.46094,10.96387-16.38086,10.96387-10.98975,0-18.37354-8.48389-18.37354-21.11133,0-12.66992,7.38379-21.18311,18.37354-21.18311,7.84033,0,14.00488,4.44434,16.08838,11.59814l.10498.36035h6.53516l-.12256-.6001c-2.11719-10.36475-11.11475-17.32861-22.38916-17.32861-14.94922,0-24.99316,10.91211-24.99316,27.15332,0,16.19873,9.92773,27.08203,24.70459,27.08203,11.29736,0,20.5249-6.6958,22.96143-16.66211l.15137-.61865h-6.54834l-.11182.34619Z"/><rect x="59.70372" y="143.91859" width="6.18652" height="52.57861"/><path d="M98.42344,142.98206c-14.75781,0-25.06445,11.19531-25.06445,27.22559,0,15.98828,10.30664,27.1543,25.06445,27.1543,5.14404,0,9.7666-1.32764,13.74609-3.94678l5.52295,6.24902,4.26855-3.92041-5.42676-6.07812c4.48828-4.89697,6.9541-11.78564,6.9541-19.45801,0-16.03027-10.30713-27.22559-25.06494-27.22559ZM117.15733,170.20765c0,5.78223-1.68994,11.01074-4.77051,14.79688l-6.80029-7.5874-4.18555,3.92432,6.62939,7.48535c-2.79102,1.6792-6.09912,2.56396-9.60693,2.56396-11.16211,0-18.66162-8.51318-18.66162-21.18311s7.49951-21.18311,18.66162-21.18311c11.20508,0,18.73389,8.51318,18.73389,21.18311Z"/><path d="M172.94883,168.20912l-8.85645-2.16016c-5.17578-1.31104-7.69141-4.02734-7.69141-8.30322,0-5.5166,4.52637-9.08105,11.53125-9.08105,6.23242,0,9.96973,3.08887,10.52344,8.69775l.04492.45068h6.25879l-.0498-.54541c-.81934-8.94531-7.06445-14.28564-16.70605-14.28564-10.63965,0-17.78857,5.96191-17.78857,14.83594,0,7.22217,4.3916,12.09814,12.69775,14.09961l8.72266,2.16309c5.21777,1.21973,7.75391,3.98193,7.75391,8.44531,0,5.60107-4.55566,9.08105-11.88965,9.08105-6.77441,0-11.3291-3.32031-11.60352-8.45898l-.02441-.47314h-6.3457l.0415.53857c.67188,8.72705,7.54346,14.14844,17.93213,14.14844,10.98145,0,18.07715-5.93652,18.07715-15.12402,0-7.18555-4.36719-12.03662-12.62793-14.02881Z"/><path d="M216.52891,179.64515c0,7.8999-3.60938,12.25049-10.16211,12.25049-5.86816,0-8.7207-3.5127-8.7207-10.73828v-20.59814h-6.04297v22.18311c0,9.1543,4.92676,14.61963,13.17871,14.61963,5.02734,0,9.53027-2.19531,11.91602-5.70166l.53027,4.83691h5.27051v-35.86621h-5.96973v19.01416Z"/><path d="M249.24571,159.69495c-5.71191,0-10.19531,2.36572-12.80859,6.70703l-.41211-5.771h-5.28809v51.06592h5.9707v-20.50928c2.64062,3.99805,7.02344,6.17432,12.53809,6.17432,10.10645,0,16.63672-7.43506,16.63672-18.94141,0-11.20068-6.68555-18.72559-16.63672-18.72559ZM259.83946,178.56458c0,8.09814-4.49805,13.33105-11.45801,13.33105-7.04785,0-11.60254-5.23291-11.60254-13.33105s4.55469-13.33105,11.60254-13.33105c6.95996,0,11.45801,5.23291,11.45801,13.33105Z"/><path d="M290.63438,159.69495c-5.71191,0-10.19531,2.36572-12.80859,6.70703l-.41211-5.771h-5.28809v51.06592h5.9707v-20.50928c2.64062,3.99805,7.02344,6.17432,12.53809,6.17432,10.10645,0,16.63672-7.43506,16.63672-18.94141,0-11.20068-6.68555-18.72559-16.63672-18.72559ZM301.22911,178.56458c0,8.09814-4.49805,13.33105-11.45898,13.33105-7.04785,0-11.60254-5.23291-11.60254-13.33105s4.55469-13.33105,11.60254-13.33105c6.96094,0,11.45898,5.23291,11.45898,13.33105Z"/><path d="M329.61094,159.69495c-10.55859,0-18.22168,7.93555-18.22168,18.86963,0,10.89209,7.66309,18.79736,18.22168,18.79736,10.55762,0,18.2207-7.90527,18.2207-18.79736,0-10.93408-7.66309-18.86963-18.2207-18.86963ZM341.78868,178.49232c0,7.8916-5.00781,13.40332-12.17773,13.40332-7.1709,0-12.17969-5.51172-12.17969-13.40332,0-7.84912,5.00879-13.33154,12.17969-13.33154,7.16992,0,12.17773,5.48242,12.17773,13.33154Z"/><path d="M369.43614,159.839c-4.19531,0-7.7002,1.79395-9.56641,4.78955l-.2666-3.99756h-5.65039v35.86621h5.9707v-20.38232c0-6.34766,3.93262-10.44971,10.01758-10.44971h3.2373v-5.36279l-.38574-.09033c-1.31738-.30957-2.29492-.37305-3.35645-.37305Z"/><polygon points="388.73399 160.63099 388.73399 149.60951 382.83458 149.60951 382.83458 160.63099 375.84727 160.63099 375.84727 165.80921 382.83458 165.80921 382.83458 196.4972 388.73399 196.4972 388.73399 165.80921 395.72227 165.80921 395.72227 160.63099 388.73399 160.63099"/></svg>