<?xml version="1.0" encoding="UTF-8"?><svg id="a" xmlns="http://www.w3.org/2000/svg" viewBox="0 0 527.37581 110.11112"><path d="M56.7364,8.01714h-.00012c.84247,0,1.69834.02284,2.54379.06803,12.54639.66792,24.08172,6.18158,32.48108,15.52495,8.39948,9.34387,12.65738,21.39914,11.98959,33.94553-1.32925,24.9746-21.94129,44.53783-46.9252,44.53783-.84383,0-1.70021-.02235-2.54541-.06754-25.89975-1.37854-45.84908-23.57073-44.47067-49.47048C11.13872,27.58187,31.7515,8.01863,56.7364,8.01714M56.73466,2.42403c-27.78357.00099-51.01674,21.76115-52.51086,49.83398-1.5449,29.02629,20.73296,53.80871,49.759,55.3536.95308.05065,1.89946.07548,2.84274.07548,27.78357,0,51.01674-21.76115,52.51086-49.83398,1.54502-29.02629-20.73283-53.80871-49.759-55.3536-.95308-.05065-1.89946-.07598-2.84274-.07548h0Z"/><path d="M56.83063,86.40168c-4.6044,0-9.26839-.99716-13.67515-3.09476l-14.01184,2.47303c-.88691.15494-1.7917-.12514-2.43628-.75085-.64458-.62769-.94849-1.52752-.8154-2.41741l2.14726-14.40315c-4.27466-8.96249-4.13959-19.49222.40621-28.35539,8.04578-15.68038,27.34533-21.89175,43.0267-13.84895,7.59686,3.89725,13.22027,10.51782,15.83631,18.64404,2.61605,8.12623,1.91089,16.7848-1.98537,24.38266-5.65618,11.02434-16.87816,17.3688-28.49245,17.37078ZM43.57262,77.59612c.44197,0,.87897.10528,1.27624.30789,6.26699,3.21394,13.40997,3.79198,20.11495,1.63875,6.70498-2.15918,12.16749-6.79934,15.38144-13.06632,6.63645-12.93522,1.51063-28.85993-11.42559-35.4944-12.94019-6.63844-28.86092-1.50964-35.49638,11.42559-3.86646,7.53628-3.86646,16.53452,0,24.06881.26617.52043.36351,1.11237.2771,1.6904l-1.70331,11.42956,11.08989-1.95856c.1609-.02781.32378-.04171.48567-.04171Z"/><path d="M70.51211,52.3916l3.70222-1.53596-2.14329-5.16654-3.72357,1.5449c-1.01565-1.50269-2.30282-2.74168-3.75808-3.72295l1.55632-3.7453-5.16555-2.14528-1.55396,3.73983c-1.72715-.33669-3.52096-.38536-5.30646-.03923l-.10776-.26021-.00149.0005-1.42869-3.44088-5.16555,2.14329,1.53509,3.69961c-1.50728,1.01801-2.76751,2.30518-3.75063,3.76516l-3.71078-1.53943-2.14329,5.16654,3.71314,1.54043c-.33768,1.72913-.3568,3.53226-.01018,5.31949l-3.70296,1.53646,2.14329,5.16654,3.69936-1.53497c1.00063,1.48779,2.27365,2.76105,3.76143,3.76168l-1.53447,3.69862,5.16654,2.14329,1.54862-3.73288c1.75694.34215,3.55076.37493,5.30832.03426l1.5305,3.7006,5.16853-2.13733-1.53236-3.70557c1.48903-1.00063,2.76291-2.27439,3.76404-3.76317l3.7006,1.53546,2.14329-5.16654-3.70259-1.53596c.34538-1.76141.3455-3.56305.00037-5.32446ZM53.58788,62.81357l-.03861-.01589c-2.06148-.86059-3.6677-2.46806-4.52209-4.53289-1.76985-4.27466.26816-9.19291,4.54282-10.96475l.00273-.00099c2.07079-.85662,4.34865-.85662,6.41919.00099,2.07079.85811,3.68372,2.47104,4.54084,4.54282.85811,2.06979.85811,4.35213,0,6.42193-.85799,2.07178-2.47092,3.68273-4.54121,4.54084h-.00161c-2.06533.85314-4.33748.85215-6.40206.00795Z"/><path d="M173.89669,65.14985c-2.18408,6.7627-8.46094,10.96387-16.38086,10.96387-10.98975,0-18.37354-8.48389-18.37354-21.11133,0-12.66992,7.38379-21.18311,18.37354-21.18311,7.84033,0,14.00488,4.44434,16.08838,11.59814l.10498.36035h6.53516l-.12256-.6001c-2.11719-10.36475-11.11475-17.32861-22.38916-17.32861-14.94922,0-24.99316,10.91211-24.99316,27.15332,0,16.19873,9.92773,27.08203,24.70459,27.08203,11.29736,0,20.5249-6.6958,22.96143-16.66211l.15137-.61865h-6.54834l-.11182.34619Z"/><rect x="187.20919" y="28.71333" width="6.18652" height="52.57861"/><path d="M225.92892,27.77681c-14.75781,0-25.06445,11.19531-25.06445,27.22559,0,15.98828,10.30664,27.1543,25.06445,27.1543,5.14404,0,9.7666-1.32764,13.74609-3.94678l5.52295,6.24902,4.26855-3.92041-5.42676-6.07812c4.48828-4.89697,6.9541-11.78564,6.9541-19.45801,0-16.03027-10.30713-27.22559-25.06494-27.22559ZM244.66281,55.00239c0,5.78223-1.68994,11.01074-4.77051,14.79688l-6.80029-7.5874-4.18555,3.92432,6.62939,7.48535c-2.79102,1.6792-6.09912,2.56396-9.60693,2.56396-11.16211,0-18.66162-8.51318-18.66162-21.18311s7.49951-21.18311,18.66162-21.18311c11.20508,0,18.73389,8.51318,18.73389,21.18311Z"/><path d="M300.45431,53.00386l-8.85645-2.16016c-5.17578-1.31104-7.69141-4.02734-7.69141-8.30322,0-5.5166,4.52637-9.08105,11.53125-9.08105,6.23242,0,9.96973,3.08887,10.52344,8.69775l.04492.45068h6.25879l-.0498-.54541c-.81934-8.94531-7.06445-14.28564-16.70605-14.28564-10.63965,0-17.78857,5.96191-17.78857,14.83594,0,7.22217,4.3916,12.09814,12.69775,14.09961l8.72266,2.16309c5.21777,1.21973,7.75391,3.98193,7.75391,8.44531,0,5.60107-4.55566,9.08105-11.88965,9.08105-6.77441,0-11.3291-3.32031-11.60352-8.45898l-.02441-.47314h-6.3457l.0415.53857c.67188,8.72705,7.54346,14.14844,17.93213,14.14844,10.98145,0,18.07715-5.93652,18.07715-15.12402,0-7.18555-4.36719-12.03662-12.62793-14.02881Z"/><path d="M344.03439,64.43989c0,7.8999-3.60938,12.25049-10.16211,12.25049-5.86816,0-8.7207-3.5127-8.7207-10.73828v-20.59814h-6.04297v22.18311c0,9.1543,4.92676,14.61963,13.17871,14.61963,5.02734,0,9.53027-2.19531,11.91602-5.70166l.53027,4.83691h5.27051v-35.86621h-5.96973v19.01416Z"/><path d="M376.75119,44.4897c-5.71191,0-10.19531,2.36572-12.80859,6.70703l-.41211-5.771h-5.28809v51.06592h5.9707v-20.50928c2.64062,3.99805,7.02344,6.17432,12.53809,6.17432,10.10645,0,16.63672-7.43506,16.63672-18.94141,0-11.20068-6.68555-18.72559-16.63672-18.72559ZM387.34494,63.35933c0,8.09814-4.49805,13.33105-11.45801,13.33105-7.04785,0-11.60254-5.23291-11.60254-13.33105s4.55469-13.33105,11.60254-13.33105c6.95996,0,11.45801,5.23291,11.45801,13.33105Z"/><path d="M418.13986,44.4897c-5.71191,0-10.19531,2.36572-12.80859,6.70703l-.41211-5.771h-5.28809v51.06592h5.9707v-20.50928c2.64062,3.99805,7.02344,6.17432,12.53809,6.17432,10.10645,0,16.63672-7.43506,16.63672-18.94141,0-11.20068-6.68555-18.72559-16.63672-18.72559ZM428.73458,63.35933c0,8.09814-4.49805,13.33105-11.45898,13.33105-7.04785,0-11.60254-5.23291-11.60254-13.33105s4.55469-13.33105,11.60254-13.33105c6.96094,0,11.45898,5.23291,11.45898,13.33105Z"/><path d="M457.11642,44.4897c-10.55859,0-18.22168,7.93555-18.22168,18.86963,0,10.89209,7.66309,18.79736,18.22168,18.79736,10.55762,0,18.2207-7.90527,18.2207-18.79736,0-10.93408-7.66309-18.86963-18.2207-18.86963ZM469.29415,63.28706c0,7.8916-5.00781,13.40332-12.17773,13.40332-7.1709,0-12.17969-5.51172-12.17969-13.40332,0-7.84912,5.00879-13.33154,12.17969-13.33154,7.16992,0,12.17773,5.48242,12.17773,13.33154Z"/><path d="M496.94161,44.63374c-4.19531,0-7.7002,1.79395-9.56641,4.78955l-.2666-3.99756h-5.65039v35.86621h5.9707v-20.38232c0-6.34766,3.93262-10.44971,10.01758-10.44971h3.2373v-5.36279l-.38574-.09033c-1.31738-.30957-2.29492-.37305-3.35645-.37305Z"/><polygon points="516.23947 45.42573 516.23947 34.40425 510.34005 34.40425 510.34005 45.42573 503.35275 45.42573 503.35275 50.60395 510.34005 50.60395 510.34005 81.29194 516.23947 81.29194 516.23947 50.60395 523.22775 50.60395 523.22775 45.42573 516.23947 45.42573"/></svg>