<?xml version="1.0" encoding="UTF-8"?><svg id="a" xmlns="http://www.w3.org/2000/svg" viewBox="0 0 576 576"><path d="M287.76383,33.82543h-.00067c4.55232,0,9.17709.12343,13.74551.36762,67.7951,3.60912,130.12687,33.40247,175.51323,83.88989,45.38703,50.49011,68.39483,115.63136,64.78638,183.42645-7.18268,134.95155-118.56092,240.66253-253.56278,240.66253-4.5597,0-9.18715-.12075-13.75423-.36494-139.95065-7.44901-247.74794-127.36569-240.2996-267.31635,7.18268-134.94619,118.56494-240.65716,253.57217-240.66521M287.75444,3.60274C137.62446,3.60811,12.08278,121.19027,4.00922,272.88331c-8.34793,156.84509,112.03163,290.75818,268.87538,299.10611,5.15004.2737,10.26385.40787,15.3609.40787,150.12998,0,275.67166-117.58753,283.74522-269.28057C580.33932,146.27164,459.95975,12.35855,303.11534,4.01061c-5.15004-.2737-10.26385-.41055-15.3609-.40787h0Z"/><path d="M288.273,457.38043c-24.88012,0-50.08224-5.38819-73.89437-16.7227l-75.71369,13.36313c-4.79248.83721-9.68156-.67621-13.16457-4.05724-3.483-3.39177-5.12522-8.25402-4.40608-13.0626l11.60285-77.82818c-23.09836-48.42929-22.36849-105.32726,2.19499-153.21987,43.4758-84.72978,147.76191-118.29325,232.49706-74.83355,41.05004,21.05901,71.43642,56.83357,85.57236,100.74408,14.13594,43.91051,10.32557,90.69758-10.72807,131.75299-30.56347,59.5706-91.20205,93.85321-153.96048,93.86394ZM216.63265,409.79908c2.38819,0,4.74955.56887,6.89624,1.66368,33.86401,17.36671,72.46146,20.49014,108.69219,8.85509,36.23073-11.66725,65.74769-36.74057,83.1144-70.60457,35.86043-69.89617,8.16278-155.94616-61.73875-191.79586-69.923-35.87116-155.95153-8.15742-191.80659,61.73875-20.89264,40.72267-20.89264,89.34516,0,130.0571,1.43828,2.81216,1.96422,6.01073,1.49732,9.13416l-9.20393,61.76022,59.9248-10.58317c.86941-.15027,1.74955-.2254,2.62433-.2254Z"/><path d="M362.20159,273.60513l20.00512-8.29963-11.58138-27.91768-20.12051,8.34793c-5.48814-8.11985-12.44341-14.81483-20.307-20.11715l8.40965-20.2379-27.91231-11.59212-8.3969,20.20839c-9.33273-1.81932-19.02569-2.08229-28.67372-.21199l-.58229-1.40608-.00805.00268-7.72003-18.593-27.91231,11.58138,8.29494,19.99103c-8.14467,5.50089-14.95437,12.45616-20.26675,20.34524l-20.05141-8.31842-11.58138,27.91768,20.06416,8.32378c-1.82468,9.34346-1.92799,19.08674-.05501,28.74415l-20.00915,8.30232,11.58138,27.91768,19.98969-8.29427c5.40697,8.03935,12.28576,14.91948,20.32511,20.32645l-8.29158,19.98567,27.91768,11.58138,8.36806-20.17082c9.49373,1.84884,19.1867,2.02594,28.68378.18515l8.27012,19.9964,27.92841-11.54918-8.28018-20.02323c8.04606-5.40697,14.92955-12.28979,20.3392-20.3345l19.9964,8.29695,11.58138-27.91768-20.00713-8.29963c1.86628-9.51788,1.86695-19.25311.00201-28.77099ZM270.75066,329.92081l-.20863-.08587c-11.1393-4.65026-19.81863-13.3363-24.43535-24.49371-9.5635-23.09836,1.44901-49.67436,24.54738-59.24859l.01476-.00537c11.18961-4.6288,23.49819-4.6288,34.68646.00537,11.18961,4.63685,19.90517,13.3524,24.53665,24.54738,4.63685,11.18425,4.63685,23.51697,0,34.70121-4.63618,11.19498-13.35173,19.8998-24.53866,24.53665h-.00872c-11.1601,4.61001-23.43781,4.60465-34.59388.04293Z"/></svg>