<?xml version="1.0" encoding="UTF-8"?><svg id="a" xmlns="http://www.w3.org/2000/svg" viewBox="0 0 1236.80718 221.90238"><path d="M94.205,128.76442l7.84423-7.84842-31.5604-30.31948-41.02776,41.04968c.43761,1.76669.92103,3.53585,1.4665,5.306.69766,2.19766,1.53053,4.36084,2.42126,6.49939l37.29761-37.31484,23.55856,22.62768Z"/><path d="M184.80192,142.87138c.45682-1.0678.94393-2.11442,1.36258-3.20832,1.07199-2.80149,1.92751-5.61776,2.68452-8.43748l-40.68668-40.70786-87.34797,87.39008c2.27129,1.62977,4.59552,3.18468,7.02541,4.56277l.72204.41766c.67205.33492,1.34509.62452,2.01764.94368l77.58288-77.61637,36.63959,36.65584Z"/><path d="M109.15504,17.64684c51.44816,0,93.30435,41.85594,93.30435,93.30435s-41.85619,93.30435-93.30435,93.30435S15.8507,162.39959,15.8507,110.95119,57.70689,17.64684,109.15504,17.64684M109.15504,6.55119C51.49661,6.55119,4.75504,53.293,4.75504,110.95119s46.74157,104.4,104.4,104.4,104.4-46.74132,104.4-104.4S166.81372,6.55119,109.15504,6.55119h0Z"/><rect x="575.80688" y="31.85563" width="8.89639" height="156.56733"/><path d="M340.53713,108.349c7.92566-11.79889,6.00685-33.30746-5.16623-41.96952-12.47254-13.08827-50.69787-7.49994-67.79684-8.60977v104.8894h18.36566v-39.17194h22.52747l17.79352,39.17194h20.08691l-19.94446-43.04639c6.21692-2.58295,10.92743-6.336,14.13397-11.26373ZM321.23727,102.82458c-6.23823,6.94675-26.65626,3.78718-35.29755,4.44781v-33.14539c8.67431.66131,28.93404-2.41231,35.29726,4.23272,6.57984,5.18184,6.43781,19.17575.00028,24.46485Z"/><path d="M379.23501,57.76971h-18.36572v104.8894h62.12909v-16.93176h-43.76337V57.76971Z"/><path d="M505.44558,127.64776c-4.83617,18.33788-30.26392,24.15849-45.26994,14.56468-10.54064-6.7977-14.86181-18.92588-14.85068-31.92613.00191-13.35563,4.11242-25.2657,14.85085-32.14133,15.18731-9.4541,40.00949-3.82834,44.69762,14.92222h19.36993c-10.97662-57.02556-100.75628-46.57009-98.14454,17.21898-2.54061,64.51711,85.73117,73.31486,98.43177,17.36158h-19.08502Z"/><path d="M646.33585,163.0018h-10.52705V58.3238h10.52705v46.63764h56.57814v-46.63764h10.37952v104.678h-10.37952v-48.24502h-56.57814v48.24502Z"/><path d="M753.8336,164.75671c-20.97648,1.819-32.40286-23.1303-16.95849-36.5505,8.20356-8.20288,31.33133-7.39016,42.8359-8.77126.38605-8.30613-1.56769-16.11681-9.21136-19.00646-11.36142-4.03768-29.49362-1.07852-29.09435,13.45025h-9.20879c-.51519-21.52629,27.40398-28.07404,43.71221-20.68619,9.46619,4.4487,13.82241,12.89345,13.74393,24.04959.00004.00007.00004,45.75966.00004,45.75966h-8.48065l-1.31588-12.42711c-4.60367,9.68029-15.20262,14.22373-26.02256,14.18201ZM756.17268,156.56874c16.97852.45995,24.74849-14.01638,23.53833-29.53118-8.52314,1.1508-29.59685.31027-35.2335,6.57817-9.99666,9.4466-1.87769,24.45512,11.69517,22.95301Z"/><path d="M843.8751,91.3648v9.06364c-38.3377-3.4625-24.40934,39.11057-26.90061,62.57337h-10.08684v-70.76015h9.50147l.87805,13.88933h-1.0232c2.3469-12.19204,16.06454-17.76421,27.63113-14.76619Z"/><path d="M880.5532,164.75671c-28.64104,1.18666-39.48713-34.01296-28.79876-56.1408,8.63355-22.07228,45.04927-25.57418,55.26154-2.92395v-49.2694h10.08684v106.57925h-8.77096l-1.0232-14.4735c-4.97263,10.95653-14.99861,16.2107-26.75546,16.22841ZM882.3093,155.54554c32.78348,1.3467,32.70922-57.38623-.00042-56.14022-32.37656-1.07346-32.45137,57.31736.00042,56.14022Z"/><path d="M965.37877,164.75671c-36.35114,1.88772-46.78395-52.21554-18.41907-69.66504,25.54506-14.39236,53.24524,4.37839,49.85269,33.84594h-60.52816l.29268-7.30992h50.14626c-.77122-34.02185-48.89706-27.72784-46.19741,4.97136-.00121,9.3558,2.16655,16.61813,6.50443,21.78291,9.58116,12.02847,36.38958,10.49205,40.13319-6.57941h9.649c-3.84751,15.42064-15.43188,23.01289-31.43362,22.95416Z"/><path d="M1020.96226,163.0018h-10.08684v-70.76015h8.77096l1.46103,12.28077c7.17131-16.41328,35.41829-18.73672,45.32343-6.13995,10.80521,11.04152,5.08608,50.23992,6.43139,64.61933h-10.08684v-41.08143c.10062-14.71725-5.58172-22.06062-19.15294-22.36897-31.29589-.79577-20.98847,44.05939-22.6602,63.4504Z"/><path d="M1120.5671,164.75671c-36.35114,1.88772-46.78395-52.21554-18.41907-69.66504,25.54506-14.39236,53.24524,4.37839,49.85269,33.84594h-60.52816l.29268-7.30992h50.14626c-.77122-34.02185-48.89706-27.72784-46.19741,4.97136-.00121,9.3558,2.16655,16.61813,6.50443,21.78291,9.58116,12.02847,36.38958,10.49205,40.13319-6.57941h9.649c-3.84751,15.42064-15.43188,23.01289-31.43362,22.95416Z"/><path d="M1194.39447,164.75671c-28.64104,1.18666-39.48713-34.01296-28.79876-56.1408,8.63355-22.07228,45.04927-25.57418,55.26154-2.92395v-49.2694h10.08684v106.57925h-8.77096l-1.0232-14.4735c-4.97263,10.95653-14.99861,16.2107-26.75546,16.22841ZM1196.15056,155.54554c32.78348,1.3467,32.70922-57.38623-.00042-56.14022-32.37656-1.07346-32.45137,57.31736.00042,56.14022Z"/></svg>