<?xml version="1.0" encoding="UTF-8"?><svg id="a" xmlns="http://www.w3.org/2000/svg" viewBox="0 0 720 720"><path d="M309.47915,420.19643l26.5081-26.52225-106.65239-102.45893-138.64553,138.7196c1.47882,5.97021,3.11243,11.94874,4.95576,17.9306,2.35763,7.42656,5.17213,14.73662,8.1822,21.96345l126.04018-126.09844,79.61168,76.46596Z"/><path d="M615.63428,467.86824c1.54373-3.60842,3.18983-7.14528,4.60457-10.84192,3.62257-9.46712,6.51364-18.98417,9.07182-28.51287l-137.49293-137.5645-295.1759,295.31821c7.67539,5.50751,15.5297,10.76202,23.74103,15.41902l2.44001,1.41141c2.27108,1.13179,4.54548,2.11046,6.81822,3.18899l262.17663-262.28981,123.81654,123.87147Z"/><path d="M360,44.69565c173.85929,0,315.30435,141.44423,315.30435,315.30435s-141.44506,315.30435-315.30435,315.30435S44.69565,533.86012,44.69565,360,186.14071,44.69565,360,44.69565M360,7.2C165.15426,7.2,7.2,165.1551,7.2,360s157.95426,352.8,352.8,352.8,352.8-157.95343,352.8-352.8S554.84657,7.2,360,7.2h0Z"/></svg>