<?xml version="1.0" encoding="UTF-8"?><svg id="a" xmlns="http://www.w3.org/2000/svg" viewBox="0 0 972.7321 444.66988"><path d="M465.77099,168.37244l10.40035-10.4059-41.84464-40.19935-54.39702,54.42608c.58021,2.34239,1.22115,4.68804,1.94437,7.035.925,2.91378,2.02926,5.78185,3.21025,8.61727l49.45136-49.47421,31.23532,30.00111Z"/><path d="M585.88973,187.07628c.60568-1.41575,1.25152-2.80342,1.80658-4.25378,1.4213-3.71439,2.5556-7.44836,3.55929-11.18691l-53.9448-53.97288-115.81108,115.86691c3.01141,2.16085,6.09302,4.22244,9.3147,6.04959l.95733.55376c.89105.44405,1.7834.82803,2.6751,1.25119l102.86395-102.90835,48.57892,48.60047Z"/><path d="M485.59264,21.04622c68.21299,0,123.70839,55.49507,123.70839,123.70839s-55.4954,123.70839-123.70839,123.70839-123.70839-55.49507-123.70839-123.70839,55.4954-123.70839,123.70839-123.70839M485.59264,6.33495c-76.44694,0-138.41966,61.97305-138.41966,138.41966s61.97272,138.41966,138.41966,138.41966,138.41966-61.97239,138.41966-138.41966S562.03991,6.33495,485.59264,6.33495h0Z"/><rect x="313.36437" y="303.23838" width="8.83362" height="135.09656"/><path d="M74.62462,327.26066c-12.50244-13.02747-50.18634-7.39526-67.31824-8.54865v104.14929h18.23615v-38.89557h22.36847l17.66803,38.89557h19.94519l-19.80377-42.74268c21.43878-7.15039,24.88184-39.42993,8.90417-52.85797ZM65.43462,351.19504c.66003,21.32043-25.97052,16.13696-39.89209,16.67029v-32.9115c13.46356.60681,40.80377-4.72253,39.89209,16.24121Z"/><polygon points="118.17949 318.71201 99.94335 318.71201 99.94335 422.8613 103.07622 422.8613 118.17949 422.8613 161.63408 422.8613 161.63408 406.04899 118.17949 406.04899 118.17949 318.71201"/><path d="M198.54918,402.55906c-10.46466-6.74365-14.76105-18.797-14.74609-31.70117.00616-13.26636,4.0816-25.08026,14.74579-31.91412,15.07794-9.39423,39.72961-3.79706,44.38251,14.81665h19.23328c-5.54352-44.03265-73.2774-49.1424-91.11261-11.25586-17.28479,34.02759.37756,83.91199,43.66943,82.06696,22.59808.49158,43.86957-13.8399,47.72839-36.47455h-18.95032c-4.80255,18.21222-30.04926,23.98303-44.95038,14.4621Z"/><polygon points="439.57457 365.19816 383.39568 365.19816 383.39568 318.88962 372.94292 318.88962 372.94292 422.82902 383.39568 422.82902 383.39568 374.92441 439.57457 374.92441 439.57457 422.82902 449.88085 422.82902 449.88085 318.88962 439.57457 318.88962 439.57457 365.19816"/><path d="M512.05425,353.5123c-16.19312-7.33569-43.91528-.83417-43.40375,20.54022h9.1438c-.39648-14.42621,17.60785-17.3645,28.88904-13.35535,7.58978,2.86932,9.52972,10.62488,9.14636,18.87238-11.42334,1.37134-34.38794.56439-42.53363,8.70935-15.33539,13.32556-3.98962,38.09875,16.83887,36.2926,10.74353.04144,21.26776-4.46997,25.83893-14.08191l1.30658,12.33942h8.42084s0-45.43671-.00006-45.43683c.07794-11.07745-4.24762-19.46259-13.64697-23.87988ZM492.45751,416.44132c-13.47711,1.49152-21.53882-13.41113-11.61267-22.79108,5.59686-6.22363,26.52191-5.38904,34.98486-6.53174,1.20166,15.40533-6.51349,29.77954-23.37219,29.32281Z"/><path d="M552.93602,363.43546l-.68701-10.86731h-9.43439v70.26086h10.01562c2.48602-23.38275-11.37878-65.52759,26.71082-62.1319v-8.99963c-10.51404-2.72522-22.81207,1.68542-26.60504,11.73798Z"/><path d="M642.23644,365.9235c-10.1402-22.49036-46.29895-19.01318-54.87164,2.90332-10.61292,21.97174.15662,56.92297,28.59558,55.74469,11.67389-.01758,21.62915-5.23468,26.56665-16.11389l1.01599,14.3714h8.70911v-105.82727h-10.01569v48.92175ZM617.70409,415.42533c-32.22284,1.16882-32.14856-56.80994-.00043-55.74408,32.47882-1.23718,32.55255,57.0813.00043,55.74408Z"/><path d="M681.8983,355.39805c-28.16473,17.32635-17.80554,71.04785,18.28912,69.17346,15.88879.05835,27.39142-7.48035,31.21179-22.79218h-9.58093c-3.71716,16.95099-30.33643,18.47656-39.84998,6.53296-3.93811-4.68872-6.05316-11.13947-6.38965-19.30713h55.82056c3.36859-29.25958-24.13605-47.89795-49.50092-33.60712ZM675.50231,381.7468c2.26947-28.07758,45.15369-31.99084,45.87891,0h-45.87891Z"/><path d="M800.52648,358.66562c-9.83533-12.50793-37.883-10.20081-45.00366,6.09662l-1.45068-12.19409h-8.70911v70.26086h10.01569c1.65991-19.25421-8.57477-63.79285,22.50031-63.00275,13.47546.30621,19.11768,7.59778,19.01776,22.21118v40.79156h10.01569c-1.33582-14.27795,4.34296-53.19983-6.38599-64.16339Z"/><path d="M835.99163,355.39805c-28.16473,17.32635-17.80554,71.04785,18.28912,69.17346,15.88879.05835,27.39142-7.48035,31.21179-22.79218h-9.58093c-3.71716,16.95099-30.33643,18.47656-39.84998,6.53296-3.93811-4.68872-6.05322-11.13947-6.38965-19.30713h55.82056c3.36859-29.25958-24.13605-47.89795-49.50092-33.60712ZM829.59563,381.7468c2.26947-28.07758,45.15363-31.99084,45.87891,0h-45.87891Z"/><path d="M953.86321,317.00175v48.92175c-10.14026-22.49036-46.29895-19.01318-54.87158,2.90332-10.61298,21.97174.15656,56.92297,28.59558,55.74469,11.67383-.01758,21.62915-5.23468,26.56665-16.11389l1.01587,14.3714h8.70923v-105.82727h-10.01575ZM929.33086,415.42533c-32.22284,1.16882-32.1485-56.80994-.00049-55.74408,32.47888-1.23718,32.55273,57.0813.00049,55.74408Z"/></svg>