<?xml version="1.0" encoding="UTF-8"?><svg id="a" xmlns="http://www.w3.org/2000/svg" viewBox="0 0 1146.5532 221.90238"><path d="M314.9811,55.94848l-39.66695,107.99001h12.98926l10.35596-28.11153h47.39256l10.35791,28.11153h13.28963l-40.118-107.99001h-14.60035ZM322.23599,71.22537c.1162.34369.2324.69328.34072,1.05075l19.31156,52.17464h-39.2179l19.16088-52.15001c.13688-.34173.27278-.70511.40474-1.07538Z"/><path d="M409.62539,123.15087l-12.2881-3.10895c-7.23616-1.77456-10.90545-5.22228-10.90545-10.24566,0-7.0658,5.20458-10.95764,14.65453-10.95764,9.03831,0,14.38074,4.43841,14.65648,12.17682l.03546.99068h11.96704l-.03545-1.06159c-.46483-13.93662-10.5529-22.59382-26.32712-22.59382-16.10215,0-26.91997,8.67689-26.91997,21.59229,0,10.32541,6.4838,17.18243,19.27018,20.37904l12.28711,3.10797c8.80591,2.16356,10.61101,5.72058,10.61101,10.39534,0,7.13867-6.19821,11.4008-16.57976,11.4008-9.40564,0-15.24836-4.76534-15.24836-12.43679v-1.02711h-11.81833v1.02711c0,13.92677,10.68192,22.92471,27.21439,22.92471,16.89784,0,28.2504-8.9743,28.2504-22.33286,0-10.73507-5.80626-16.97464-18.82408-20.23033Z"/><path d="M492.85115,140.12061c-2.67467,8.72712-10.94289,14.36597-21.06248,14.36597-13.93661,0-22.94144-10.74692-22.94144-27.37985,0-16.55416,9.51592-27.67626,23.68003-27.67626,10.01424,0,17.74082,5.60439,20.16436,14.62595l.20485.76025h12.23785l-.23142-1.21918c-2.91398-15.33694-15.68067-25.24679-32.52433-25.24679-21.3215,0-35.64709,15.63437-35.64709,38.90375,0,23.00447,14.08828,38.4596,35.0572,38.4596,16.75308,0,29.86348-9.83598,33.40079-25.05971l.29249-1.25953h-12.40823l-.22256.72579Z"/><path d="M569.47789,141.17924c-2.53187,8.99597-9.76213,13.75149-20.90984,13.75149-14.3975,0-23.17878-9.26384-24.21771-25.46545h56.90749v-6.05738c0-20.96892-13.49345-35.05719-33.57608-35.05719-20.81629,0-35.35361,15.93669-35.35361,38.75602,0,23.09212,14.50384,38.60733,36.09221,38.60733,17.21001,0,28.86095-8.52425,32.80598-24.00206l.32696-1.2812h-11.86465l-.21074.74845ZM524.74817,120.01237c2.07001-13.09955,10.57261-20.87735,22.93357-20.87735,12.60913,0,20.8734,8.15793,21.29489,20.87735h-44.22847Z"/><path d="M630.26247,88.35071c-9.86553,0-18.75711,4.62452-23.89864,12.24869l-1.22902-10.32542h-10.81584v73.66451h12.26149v-38.46057c0-16.12481,8.18945-25.75104,21.90645-25.75104,12.52149,0,18.35434,6.86687,18.35434,21.60905v42.60257h12.26346v-44.82227c0-20.12693-9.97288-30.76551-28.84225-30.76551Z"/><path d="M731.19655,101.02187c-5.39266-8.20519-14.23796-12.67116-25.30789-12.67116-20.70302,0-34.61305,15.63437-34.61305,38.90375,0,23.00447,13.7308,38.4596,34.16794,38.4596,11.73071,0,20.93939-4.85792,26.30643-13.77314l.84888,11.99757h10.86115V54.0252h-12.26347v46.99667ZM731.04982,126.95804c0,16.63293-9.35443,27.37985-23.8307,27.37985-14.29607,0-23.53331-10.74692-23.53331-27.37985s9.23724-27.37986,23.53331-27.37986c14.47627,0,23.8307,10.74692,23.8307,27.37986Z"/><path d="M813.43064,141.18023c-2.52992,8.99498-9.76017,13.7505-20.90789,13.7505-14.3975,0-23.17878-9.26384-24.21771-25.46545h56.90749v-6.05738c0-20.96892-13.49345-35.05719-33.57805-35.05719-20.81432,0-35.35164,15.93669-35.35164,38.75602,0,23.09212,14.50384,38.60733,36.09221,38.60733,17.21001,0,28.86095-8.52425,32.80598-24.00206l.32696-1.2812h-11.86661l-.21073.74944ZM768.70288,120.01237c2.06804-13.09955,10.56965-20.87735,22.9316-20.87735,12.6111,0,20.87537,8.15793,21.29686,20.87735h-44.22847Z"/><path d="M870.07421,88.64713c-8.61683,0-15.81558,3.68506-19.65029,9.83795l-.54656-8.2111h-11.60564v73.66451h12.26346v-41.86201c0-13.0385,8.07619-21.46329,20.57404-21.46329h6.64923v-11.01377l-.79174-.18711c-2.70225-.63519-4.71022-.76517-6.89249-.76517Z"/><path d="M976.88249,55.94848h-41.41788v107.99001h12.70761v-38.91161h28.71027c20.20673,0,34.31861-14.29409,34.31861-34.76077,0-20.84682-13.47081-34.31762-34.31861-34.31762ZM998.05035,90.11739c0,14.33251-8.90437,23.23689-23.23884,23.23689h-26.6393v-45.73418h27.23115c14.18083,0,22.64699,8.41002,22.64699,22.4973Z"/><path d="M1053.13305,88.64713c-8.61682,0-15.81557,3.68506-19.65031,9.83795l-.54654-8.2111h-11.60564v73.66451h12.26346v-41.86201c0-13.0385,8.07619-21.46329,20.57403-21.46329h6.64925v-11.01377l-.79178-.18711c-2.70223-.63519-4.71019-.76517-6.89248-.76517Z"/><path d="M1099.93869,88.35071c-21.68586,0-37.4246,16.29908-37.4246,38.75602,0,22.37027,15.73874,38.60733,37.4246,38.60733,21.68388,0,37.42264-16.23706,37.42264-38.60733,0-22.45694-15.73876-38.75602-37.42264-38.75602ZM1124.95112,126.95804c0,16.2085-10.28603,27.52855-25.01244,27.52855-14.72838,0-25.01442-11.32005-25.01442-27.52855,0-16.12086,10.28603-27.37986,25.01442-27.37986,14.7264,0,25.01244,11.259,25.01244,27.37986Z"/><path d="M109.10334,17.64684c51.44816,0,93.30436,41.85595,93.30436,93.30436s-41.8562,93.30436-93.30436,93.30436S15.79898,162.39959,15.79898,110.95119,57.65518,17.64684,109.10334,17.64684M109.10334,6.55119C51.4449,6.55119,4.70334,53.29302,4.70334,110.95119s46.74156,104.4,104.4,104.4,104.4-46.74133,104.4-104.4S166.76201,6.55119,109.10334,6.55119h0Z"/><polygon points="142.32057 167.94655 82.77528 167.94655 76.37709 156.85091 123.02925 156.85091 91.92715 103.39396 54.65911 167.94655 41.84582 167.94655 91.8917 81.26571 142.32057 167.94655"/><polygon points="130.09211 37.26137 104.8331 81.01255 111.30957 91.98901 130.12756 59.3975 155.3292 102.7399 117.65258 102.7399 124.19902 113.83555 161.7808 113.83555 178.8582 143.20592 191.65922 143.14781 130.09211 37.26137"/></svg>