<?xml version="1.0" encoding="UTF-8"?>
<svg id="a" xmlns="http://www.w3.org/2000/svg" version="1.1" viewBox="0 0 284.8 284.8">
  <!-- Generator: Adobe Illustrator 29.7.1, SVG Export Plug-In . SVG Version: 2.1.1 Build 8)  -->
  <path d="M142.4,15.1c70.2,0,127.3,57.1,127.3,127.3s-57.1,127.3-127.3,127.3S15.1,212.6,15.1,142.4,72.2,15.1,142.4,15.1M142.4,0C63.8,0,0,63.8,0,142.4s63.8,142.4,142.4,142.4,142.4-63.8,142.4-142.4S221.1,0,142.4,0h0Z"/>
  <polygon points="187.7 220.2 106.5 220.2 97.8 205 161.4 205 119 132.1 68.1 220.2 50.7 220.2 118.9 101.9 187.7 220.2"/>
  <polygon points="171 41.9 136.6 101.6 145.4 116.5 171.1 72.1 205.5 131.2 154.1 131.2 163 146.3 214.3 146.3 237.6 186.4 255 186.3 171 41.9"/>
</svg>